Akatab-Regular_beta.ufo
<glyph name="NumSgn" format="1">
  <advance width="1200"/>
  <unicode hex="0023"/>
  <outline>
    <contour>
      <point x="466" y="1402" type="line"/>
      <point x="122" y="200" type="line"/>
      <point x="265" y="200" type="line"/>
      <point x="609" y="1402" type="line"/>
    </contour>
    <contour>
      <point x="25" y="558" type="line"/>
      <point x="1066" y="558" type="line"/>
      <point x="1066" y="701" type="line"/>
      <point x="25" y="701" type="line"/>
    </contour>
    <contour>
      <point x="81" y="925" type="line"/>
      <point x="1122" y="925" type="line"/>
      <point x="1122" y="1068" type="line"/>
      <point x="81" y="1068" type="line"/>
    </contour>
    <contour>
      <point x="871" y="1402" type="line"/>
      <point x="528" y="200" type="line"/>
      <point x="671" y="200" type="line"/>
      <point x="1014" y="1402" type="line"/>
    </contour>
  </outline>
</glyph>
<glyph name="Ampersand" format="1">
  <advance width="1222"/>
  <unicode hex="0026"/>
  <outline>
    <contour>
      <point x="470" y="1416" type="curve" smooth="yes"/>
      <point x="318" y="1416"/>
      <point x="150" y="1346"/>
      <point x="150" y="1134" type="curve" smooth="yes"/>
      <point x="150" y="962"/>
      <point x="348" y="776"/>
      <point x="513" y="543" type="curve" smooth="yes"/>
      <point x="760" y="192"/>
      <point x="931" y="-25"/>
      <point x="980" y="-25" type="curve" smooth="yes"/>
      <point x="1014" y="-25"/>
      <point x="1088" y="35"/>
      <point x="1123" y="66" type="curve"/>
      <point x="1033" y="104"/>
      <point x="874" y="282"/>
      <point x="623" y="648" type="curve" smooth="yes"/>
      <point x="474" y="863"/>
      <point x="303" y="1024"/>
      <point x="303" y="1144" type="curve" smooth="yes"/>
      <point x="303" y="1230"/>
      <point x="382" y="1287"/>
      <point x="456" y="1287" type="curve" smooth="yes"/>
      <point x="532" y="1287"/>
      <point x="604" y="1233"/>
      <point x="604" y="1148" type="curve" smooth="yes"/>
      <point x="604" y="1064"/>
      <point x="501" y="954"/>
      <point x="336" y="800" type="curve" smooth="yes"/>
      <point x="142" y="620"/>
      <point x="55" y="502"/>
      <point x="55" y="357" type="curve" smooth="yes"/>
      <point x="55" y="143"/>
      <point x="210" y="-25"/>
      <point x="422" y="-25" type="curve" smooth="yes"/>
      <point x="683" y="-25"/>
      <point x="958" y="260"/>
      <point x="1033" y="414" type="curve"/>
      <point x="933" y="543" type="line"/>
      <point x="872" y="383"/>
      <point x="604" y="142"/>
      <point x="437" y="142" type="curve" smooth="yes"/>
      <point x="298" y="142"/>
      <point x="222" y="254"/>
      <point x="222" y="361" type="curve" smooth="yes"/>
      <point x="222" y="466"/>
      <point x="285" y="559"/>
      <point x="451" y="705" type="curve" smooth="yes"/>
      <point x="624" y="856"/>
      <point x="756" y="1018"/>
      <point x="756" y="1144" type="curve" smooth="yes"/>
      <point x="756" y="1317"/>
      <point x="615" y="1416"/>
    </contour>
  </outline>
</glyph>
<glyph name="Apos" format="1">
  <advance width="605"/>
  <unicode hex="0027"/>
  <outline>
    <contour>
      <point x="357" y="1045" type="line"/>
      <point x="362" y="1180"/>
      <point x="368" y="1325"/>
      <point x="396" y="1560" type="curve"/>
      <point x="200" y="1560" type="line"/>
      <point x="230" y="1325"/>
      <point x="234" y="1180"/>
      <point x="238" y="1045" type="curve"/>
    </contour>
  </outline>
</glyph>
<glyph name="RtParen" format="1">
  <advance width="795"/>
  <unicode hex="0029"/>
  <outline>
    <contour>
      <point x="656" y="577" type="curve" smooth="yes"/>
      <point x="656" y="994"/>
      <point x="489" y="1359"/>
      <point x="237" y="1546" type="curve"/>
      <point x="165" y="1398" type="line"/>
      <point x="380" y="1202"/>
      <point x="475" y="899"/>
      <point x="475" y="577" type="curve" smooth="yes"/>
      <point x="475" y="246"/>
      <point x="380" y="-26"/>
      <point x="165" y="-272" type="curve"/>
      <point x="256" y="-410" type="line"/>
      <point x="518" y="-138"/>
      <point x="656" y="189"/>
    </contour>
  </outline>
</glyph>
<glyph name="Comma" format="1">
  <advance width="650"/>
  <unicode hex="002C"/>
  <outline>
    <contour>
      <point x="185" y="35" type="line"/>
      <point x="319" y="35" type="line"/>
      <point x="319" y="-61"/>
      <point x="245" y="-177"/>
      <point x="190" y="-232" type="curve"/>
      <point x="285" y="-270" type="line"/>
      <point x="397" y="-165"/>
      <point x="452" y="-48"/>
      <point x="452" y="69" type="curve" smooth="yes"/>
      <point x="452" y="165"/>
      <point x="390" y="226"/>
      <point x="314" y="226" type="curve" smooth="yes"/>
      <point x="259" y="226"/>
      <point x="197" y="191"/>
      <point x="185" y="131" type="curve"/>
    </contour>
  </outline>
</glyph>
<glyph name="DigitZero" format="1">
  <advance width="1200"/>
  <unicode hex="0030"/>
  <outline>
    <contour>
      <point x="872" y="681" type="curve" smooth="yes"/>
      <point x="872" y="293"/>
      <point x="760" y="137"/>
      <point x="577" y="137" type="curve" smooth="yes"/>
      <point x="388" y="137"/>
      <point x="281" y="290"/>
      <point x="281" y="710" type="curve" smooth="yes"/>
      <point x="281" y="1099"/>
      <point x="392" y="1253"/>
      <point x="577" y="1253" type="curve" smooth="yes"/>
      <point x="769" y="1253"/>
      <point x="872" y="1102"/>
    </contour>
    <contour>
      <point x="1063" y="705" type="curve" smooth="yes"/>
      <point x="1063" y="1226"/>
      <point x="863" y="1416"/>
      <point x="586" y="1416" type="curve" smooth="yes"/>
      <point x="310" y="1416"/>
      <point x="90" y="1223"/>
      <point x="90" y="686" type="curve" smooth="yes"/>
      <point x="90" y="147"/>
      <point x="291" y="-25"/>
      <point x="567" y="-25" type="curve" smooth="yes"/>
      <point x="845" y="-25"/>
      <point x="1063" y="143"/>
    </contour>
    <contour>
      <point x="605" y="-100" type="move" name="L"/>
    </contour>
    <contour>
      <point x="605" y="1530" type="move" name="U"/>
    </contour>
  </outline>
</glyph>
<glyph name="DigitOne" format="1">
  <advance width="1200"/>
  <unicode hex="0031"/>
  <outline>
    <contour>
      <point x="520" y="162" type="line"/>
      <point x="220" y="162" type="line"/>
      <point x="220" y="0" type="line"/>
      <point x="1002" y="0" type="line"/>
      <point x="1002" y="162" type="line"/>
      <point x="701" y="162" type="line"/>
      <point x="701" y="1412" type="line"/>
      <point x="539" y="1412" type="line"/>
      <point x="210" y="1210" type="line"/>
      <point x="234" y="1038" type="line"/>
      <point x="520" y="1202" type="line"/>
    </contour>
    <contour>
      <point x="600" y="-100" type="move" name="L"/>
    </contour>
    <contour>
      <point x="600" y="1530" type="move" name="U"/>
    </contour>
  </outline>
</glyph>
<glyph name="DigitThree" format="1">
  <advance width="1200"/>
  <unicode hex="0033"/>
  <outline>
    <contour>
      <point x="396" y="829" type="line"/>
      <point x="396" y="667" type="line"/>
      <point x="463" y="667" type="line"/>
      <point x="688" y="667"/>
      <point x="859" y="560"/>
      <point x="859" y="404" type="curve" smooth="yes"/>
      <point x="859" y="229"/>
      <point x="690" y="142"/>
      <point x="544" y="142" type="curve" smooth="yes"/>
      <point x="372" y="142"/>
      <point x="238" y="220"/>
      <point x="134" y="338" type="curve"/>
      <point x="110" y="132" type="line"/>
      <point x="210" y="39"/>
      <point x="356" y="-25"/>
      <point x="525" y="-25" type="curve" smooth="yes"/>
      <point x="801" y="-25"/>
      <point x="1045" y="161"/>
      <point x="1045" y="385" type="curve" smooth="yes"/>
      <point x="1045" y="640"/>
      <point x="827" y="739"/>
      <point x="692" y="762" type="curve"/>
      <point x="827" y="790"/>
      <point x="997" y="912"/>
      <point x="997" y="1086" type="curve" smooth="yes"/>
      <point x="997" y="1291"/>
      <point x="795" y="1416"/>
      <point x="558" y="1416" type="curve"/>
      <point x="399" y="1416"/>
      <point x="253" y="1350"/>
      <point x="177" y="1263" type="curve"/>
      <point x="210" y="1101" type="line"/>
      <point x="318" y="1211"/>
      <point x="421" y="1249"/>
      <point x="568" y="1249" type="curve" smooth="yes"/>
      <point x="683" y="1249"/>
      <point x="816" y="1191"/>
      <point x="816" y="1063" type="curve" smooth="yes"/>
      <point x="816" y="944"/>
      <point x="653" y="829"/>
      <point x="463" y="829" type="curve"/>
    </contour>
    <contour>
      <point x="600" y="-100" type="move" name="L"/>
    </contour>
    <contour>
      <point x="600" y="1530" type="move" name="U"/>
    </contour>
  </outline>
</glyph>
<glyph name="DigitFour" format="1">
  <advance width="1200"/>
  <unicode hex="0034"/>
  <outline>
    <contour>
      <point x="1077" y="377" type="line"/>
      <point x="1077" y="525" type="line"/>
      <point x="896" y="525" type="line"/>
      <point x="896" y="1412" type="line"/>
      <point x="715" y="1412" type="line"/>
      <point x="90" y="525" type="line"/>
      <point x="90" y="377" type="line"/>
      <point x="715" y="377" type="line"/>
      <point x="715" y="0" type="line"/>
      <point x="896" y="0" type="line"/>
      <point x="896" y="377" type="line"/>
    </contour>
    <contour>
      <point x="715" y="1173" type="line"/>
      <point x="715" y="525" type="line"/>
      <point x="255" y="525" type="line"/>
    </contour>
    <contour>
      <point x="607" y="-100" type="move" name="L"/>
    </contour>
    <contour>
      <point x="607" y="1530" type="move" name="U"/>
    </contour>
  </outline>
</glyph>
<glyph name="DigitFive" format="1">
  <advance width="1200"/>
  <unicode hex="0035"/>
  <outline>
    <contour>
      <point x="192" y="652" type="line"/>
      <point x="310" y="698"/>
      <point x="391" y="714"/>
      <point x="493" y="714" type="curve" smooth="yes"/>
      <point x="645" y="714"/>
      <point x="836" y="640"/>
      <point x="836" y="447" type="curve" smooth="yes"/>
      <point x="836" y="255"/>
      <point x="702" y="147"/>
      <point x="512" y="147" type="curve" smooth="yes"/>
      <point x="378" y="147"/>
      <point x="286" y="172"/>
      <point x="159" y="276" type="curve"/>
      <point x="130" y="75" type="line"/>
      <point x="249" y="1"/>
      <point x="352" y="-25"/>
      <point x="500" y="-25" type="curve" smooth="yes"/>
      <point x="799" y="-25"/>
      <point x="1017" y="154"/>
      <point x="1017" y="452" type="curve" smooth="yes"/>
      <point x="1017" y="707"/>
      <point x="800" y="886"/>
      <point x="526" y="886" type="curve" smooth="yes"/>
      <point x="456" y="886"/>
      <point x="398" y="880"/>
      <point x="369" y="877" type="curve"/>
      <point x="369" y="1230" type="line"/>
      <point x="736" y="1230" type="line"/>
      <point x="816" y="1230"/>
      <point x="888" y="1226"/>
      <point x="960" y="1210" type="curve"/>
      <point x="960" y="1392" type="line"/>
      <point x="192" y="1392" type="line"/>
    </contour>
    <contour>
      <point x="600" y="-100" type="move" name="L"/>
    </contour>
    <contour>
      <point x="600" y="1530" type="move" name="U"/>
    </contour>
  </outline>
</glyph>
<glyph name="DigitEight" format="1">
  <advance width="1200"/>
  <unicode hex="0038"/>
  <outline>
    <contour>
      <point x="577" y="-25" type="curve" smooth="yes"/>
      <point x="822" y="-25"/>
      <point x="1063" y="127"/>
      <point x="1063" y="385" type="curve" smooth="yes"/>
      <point x="1063" y="582"/>
      <point x="925" y="704"/>
      <point x="820" y="757" type="curve"/>
      <point x="894" y="804"/>
      <point x="1006" y="879"/>
      <point x="1006" y="1053" type="curve" smooth="yes"/>
      <point x="1006" y="1287"/>
      <point x="806" y="1416"/>
      <point x="586" y="1416" type="curve" smooth="yes"/>
      <point x="368" y="1416"/>
      <point x="147" y="1287"/>
      <point x="147" y="1053" type="curve" smooth="yes"/>
      <point x="147" y="879"/>
      <point x="264" y="798"/>
      <point x="338" y="757" type="curve"/>
      <point x="215" y="691"/>
      <point x="90" y="582"/>
      <point x="90" y="385" type="curve" smooth="yes"/>
      <point x="90" y="127"/>
      <point x="332" y="-25"/>
    </contour>
    <contour>
      <point x="825" y="1053" type="curve" smooth="yes"/>
      <point x="825" y="904"/>
      <point x="713" y="824"/>
      <point x="577" y="824" type="curve" smooth="yes"/>
      <point x="440" y="824"/>
      <point x="329" y="904"/>
      <point x="329" y="1053" type="curve" smooth="yes"/>
      <point x="329" y="1193"/>
      <point x="440" y="1263"/>
      <point x="577" y="1263" type="curve" smooth="yes"/>
      <point x="713" y="1263"/>
      <point x="825" y="1193"/>
    </contour>
    <contour>
      <point x="872" y="404" type="curve" smooth="yes"/>
      <point x="872" y="237"/>
      <point x="746" y="137"/>
      <point x="577" y="137" type="curve" smooth="yes"/>
      <point x="405" y="137"/>
      <point x="281" y="237"/>
      <point x="281" y="404" type="curve" smooth="yes"/>
      <point x="281" y="564"/>
      <point x="405" y="676"/>
      <point x="577" y="676" type="curve" smooth="yes"/>
      <point x="746" y="676"/>
      <point x="872" y="564"/>
    </contour>
    <contour>
      <point x="600" y="-100" type="move" name="L"/>
    </contour>
    <contour>
      <point x="600" y="1530" type="move" name="U"/>
    </contour>
  </outline>
</glyph>
<glyph name="DigitNine" format="1">
  <advance width="1200"/>
  <unicode hex="0039"/>
  <outline>
    <contour>
      <point x="189" y="61" type="line"/>
      <point x="288" y="-6"/>
      <point x="371" y="-25"/>
      <point x="483" y="-25" type="curve" smooth="yes"/>
      <point x="936" y="-25"/>
      <point x="1068" y="391"/>
      <point x="1068" y="743" type="curve" smooth="yes"/>
      <point x="1068" y="1142"/>
      <point x="889" y="1416"/>
      <point x="593" y="1416" type="curve" smooth="yes"/>
      <point x="338" y="1416"/>
      <point x="112" y="1245"/>
      <point x="112" y="955" type="curve" smooth="yes"/>
      <point x="112" y="736"/>
      <point x="273" y="558"/>
      <point x="538" y="558" type="curve" smooth="yes"/>
      <point x="721" y="558"/>
      <point x="885" y="683"/>
      <point x="977" y="836" type="curve"/>
      <point x="910" y="916" type="line"/>
      <point x="839" y="807"/>
      <point x="709" y="724"/>
      <point x="561" y="724" type="curve" smooth="yes"/>
      <point x="410" y="724"/>
      <point x="297" y="819"/>
      <point x="297" y="987" type="curve" smooth="yes"/>
      <point x="297" y="1140"/>
      <point x="406" y="1249"/>
      <point x="574" y="1249" type="curve" smooth="yes"/>
      <point x="804" y="1249"/>
      <point x="882" y="1015"/>
      <point x="882" y="774" type="curve" smooth="yes"/>
      <point x="882" y="310"/>
      <point x="719" y="142"/>
      <point x="493" y="142" type="curve" smooth="yes"/>
      <point x="401" y="142"/>
      <point x="313" y="165"/>
      <point x="231" y="247" type="curve"/>
    </contour>
    <contour>
      <point x="600" y="-100" type="move" name="L"/>
    </contour>
    <contour>
      <point x="600" y="1530" type="move" name="U"/>
    </contour>
  </outline>
</glyph>
<glyph name="QstnMrk" format="1">
  <advance width="1050"/>
  <unicode hex="003F"/>
  <outline>
    <contour>
      <point x="445" y="1468" type="curve" smooth="yes"/>
      <point x="326" y="1468"/>
      <point x="203" y="1423"/>
      <point x="140" y="1363" type="curve"/>
      <point x="183" y="1192" type="line"/>
      <point x="255" y="1268"/>
      <point x="342" y="1301"/>
      <point x="419" y="1301" type="curve" smooth="yes"/>
      <point x="559" y="1301"/>
      <point x="603" y="1229"/>
      <point x="603" y="1172" type="curve" smooth="yes"/>
      <point x="603" y="1105"/>
      <point x="552" y="1041"/>
      <point x="469" y="934" type="curve" smooth="yes"/>
      <point x="385" y="826"/>
      <point x="345" y="695"/>
      <point x="345" y="419" type="curve"/>
      <point x="522" y="419" type="line"/>
      <point x="522" y="687"/>
      <point x="542" y="768"/>
      <point x="641" y="883" type="curve" smooth="yes"/>
      <point x="725" y="980"/>
      <point x="798" y="1064"/>
      <point x="798" y="1182" type="curve" smooth="yes"/>
      <point x="798" y="1355"/>
      <point x="671" y="1468"/>
    </contour>
    <contour>
      <point x="307" y="104" type="curve" smooth="yes"/>
      <point x="307" y="33"/>
      <point x="365" y="-25"/>
      <point x="436" y="-25" type="curve" smooth="yes"/>
      <point x="506" y="-25"/>
      <point x="565" y="33"/>
      <point x="565" y="104" type="curve" smooth="yes"/>
      <point x="565" y="174"/>
      <point x="506" y="233"/>
      <point x="436" y="233" type="curve" smooth="yes"/>
      <point x="365" y="233"/>
      <point x="307" y="174"/>
    </contour>
  </outline>
</glyph>
<glyph name="LtnCapA" format="1">
  <advance width="1395"/>
  <unicode hex="0041"/>
  <outline>
    <contour>
      <point x="236" y="0" type="line"/>
      <point x="363" y="367" type="line"/>
      <point x="950" y="367" type="line"/>
      <point x="1080" y="0" type="line"/>
      <point x="1275" y="0" type="line"/>
      <point x="1242" y="76"/>
      <point x="1206" y="161"/>
      <point x="1142" y="339" type="curve" smooth="yes"/>
      <point x="760" y="1393" type="line"/>
      <point x="555" y="1393" type="line"/>
      <point x="174" y="339" type="line" smooth="yes"/>
      <point x="109" y="160"/>
      <point x="74" y="77"/>
      <point x="40" y="0" type="curve"/>
    </contour>
    <contour>
      <point x="899" y="515" type="line"/>
      <point x="415" y="515" type="line"/>
      <point x="655" y="1207" type="line"/>
    </contour>
    <contour>
      <point x="1230" y="0" type="move" name="H"/>
    </contour>
    <contour>
      <point x="687" y="-100" type="move" name="L"/>
    </contour>
    <contour>
      <point x="1450" y="0" type="move" name="O"/>
    </contour>
    <contour>
      <point x="687" y="1530" type="move" name="U"/>
    </contour>
  </outline>
</glyph>
<glyph name="LtnCapB" format="1">
  <advance width="1285"/>
  <unicode hex="0042"/>
  <outline>
    <contour>
      <point x="356" y="1249" type="line"/>
      <point x="396" y="1251"/>
      <point x="496" y="1254"/>
      <point x="570" y="1254" type="curve" smooth="yes"/>
      <point x="762" y="1254"/>
      <point x="837" y="1182"/>
      <point x="837" y="1039" type="curve" smooth="yes"/>
      <point x="837" y="907"/>
      <point x="746" y="815"/>
      <point x="542" y="815" type="curve" smooth="yes"/>
      <point x="356" y="815" type="line"/>
    </contour>
    <contour>
      <point x="174" y="434" type="line"/>
      <point x="174" y="245"/>
      <point x="174" y="76"/>
      <point x="160" y="0" type="curve"/>
      <point x="211" y="-5"/>
      <point x="391" y="-10"/>
      <point x="585" y="-10" type="curve" smooth="yes"/>
      <point x="950" y="-10"/>
      <point x="1095" y="168"/>
      <point x="1095" y="400" type="curve" smooth="yes"/>
      <point x="1095" y="638"/>
      <point x="937" y="724"/>
      <point x="790" y="763" type="curve"/>
      <point x="919" y="812"/>
      <point x="1023" y="908"/>
      <point x="1023" y="1068" type="curve" smooth="yes"/>
      <point x="1023" y="1317"/>
      <point x="863" y="1402"/>
      <point x="580" y="1402" type="curve" smooth="yes"/>
      <point x="419" y="1402"/>
      <point x="244" y="1398"/>
      <point x="160" y="1392" type="curve"/>
      <point x="174" y="1316"/>
      <point x="174" y="1141"/>
      <point x="174" y="954" type="curve" smooth="yes"/>
    </contour>
    <contour>
      <point x="356" y="667" type="line"/>
      <point x="580" y="667" type="line" smooth="yes"/>
      <point x="802" y="667"/>
      <point x="909" y="576"/>
      <point x="909" y="400" type="curve" smooth="yes"/>
      <point x="909" y="202"/>
      <point x="752" y="143"/>
      <point x="589" y="143" type="curve" smooth="yes"/>
      <point x="482" y="143"/>
      <point x="391" y="146"/>
      <point x="356" y="147" type="curve"/>
    </contour>
    <contour>
      <point x="615" y="-100" type="move" name="L"/>
    </contour>
    <contour>
      <point x="615" y="1530" type="move" name="U"/>
    </contour>
  </outline>
</glyph>
<glyph name="LtnCapH" format="1">
  <advance width="1475"/>
  <unicode hex="0048"/>
  <outline>
    <contour>
      <point x="1238" y="0" type="line"/>
      <point x="1224" y="76"/>
      <point x="1224" y="227"/>
      <point x="1224" y="415" type="curve" smooth="yes"/>
      <point x="1224" y="978" type="line" smooth="yes"/>
      <point x="1224" y="1166"/>
      <point x="1224" y="1317"/>
      <point x="1238" y="1393" type="curve"/>
      <point x="1042" y="1393" type="line"/>
      <point x="1042" y="797" type="line"/>
      <point x="356" y="797" type="line"/>
      <point x="356" y="1393" type="line"/>
      <point x="160" y="1393" type="line"/>
      <point x="174" y="1317"/>
      <point x="174" y="1166"/>
      <point x="174" y="978" type="curve" smooth="yes"/>
      <point x="174" y="415" type="line" smooth="yes"/>
      <point x="174" y="227"/>
      <point x="174" y="76"/>
      <point x="160" y="0" type="curve"/>
      <point x="356" y="0" type="line"/>
      <point x="356" y="644" type="line"/>
      <point x="1042" y="644" type="line"/>
      <point x="1042" y="0" type="line"/>
    </contour>
    <contour>
      <point x="285" y="0" type="move" name="H"/>
    </contour>
    <contour>
      <point x="725" y="-100" type="move" name="L"/>
    </contour>
    <contour>
      <point x="725" y="1530" type="move" name="U"/>
    </contour>
  </outline>
</glyph>
<glyph name="LtnCapJ" format="1">
  <advance width="965"/>
  <unicode hex="004A"/>
  <outline>
    <contour>
      <point x="550" y="1392" type="line"/>
      <point x="563" y="1291"/>
      <point x="564" y="1120"/>
      <point x="564" y="934" type="curve"/>
      <point x="564" y="462" type="line" smooth="yes"/>
      <point x="564" y="243"/>
      <point x="466" y="147"/>
      <point x="326" y="147" type="curve" smooth="yes"/>
      <point x="238" y="147"/>
      <point x="142" y="188"/>
      <point x="78" y="261" type="curve"/>
      <point x="35" y="85" type="line"/>
      <point x="103" y="7"/>
      <point x="240" y="-25"/>
      <point x="331" y="-25" type="curve" smooth="yes"/>
      <point x="576" y="-25"/>
      <point x="746" y="112"/>
      <point x="746" y="509" type="curve" smooth="yes"/>
      <point x="746" y="1392" type="line"/>
    </contour>
    <contour>
      <point x="410" y="-100" type="move" name="L"/>
    </contour>
    <contour>
      <point x="675" y="1530" type="move" name="U"/>
    </contour>
  </outline>
</glyph>
<glyph name="LtnCapK" format="1">
  <advance width="1310"/>
  <unicode hex="004B"/>
  <outline>
    <contour>
      <point x="890" y="1393" type="line"/>
      <point x="289" y="671" type="line"/>
      <point x="413" y="711" type="line"/>
      <point x="513" y="706" type="line"/>
      <point x="1119" y="1393" type="line"/>
    </contour>
    <contour>
      <point x="341" y="701" type="line"/>
      <point x="947" y="0" type="line"/>
      <point x="1181" y="0" type="line"/>
      <point x="470" y="820" type="line"/>
    </contour>
    <contour>
      <point x="356" y="1393" type="line"/>
      <point x="160" y="1393" type="line"/>
      <point x="174" y="1317"/>
      <point x="174" y="1166"/>
      <point x="174" y="978" type="curve" smooth="yes"/>
      <point x="174" y="415" type="line" smooth="yes"/>
      <point x="174" y="227"/>
      <point x="174" y="76"/>
      <point x="160" y="0" type="curve"/>
      <point x="356" y="0" type="line"/>
    </contour>
    <contour>
      <point x="270" y="0" type="move" name="H"/>
    </contour>
    <contour>
      <point x="695" y="-100" type="move" name="L"/>
    </contour>
    <contour>
      <point x="650" y="1530" type="move" name="U"/>
    </contour>
  </outline>
</glyph>
<glyph name="LtnCapL" format="1">
  <advance width="1080"/>
  <unicode hex="004C"/>
  <outline>
    <contour>
      <point x="356" y="157" type="line"/>
      <point x="356" y="1393" type="line"/>
      <point x="160" y="1393" type="line"/>
      <point x="174" y="1317"/>
      <point x="174" y="1166"/>
      <point x="174" y="978" type="curve" smooth="yes"/>
      <point x="174" y="415" type="line" smooth="yes"/>
      <point x="174" y="227"/>
      <point x="174" y="76"/>
      <point x="160" y="0" type="curve"/>
      <point x="985" y="0" type="line"/>
      <point x="985" y="172" type="line"/>
      <point x="909" y="158"/>
      <point x="757" y="157"/>
      <point x="569" y="157" type="curve" smooth="yes"/>
    </contour>
    <contour>
      <point x="592" y="0" type="move" name="H"/>
    </contour>
    <contour>
      <point x="592" y="-100" type="move" name="L"/>
    </contour>
    <contour>
      <point x="540" y="1200" type="move" name="R"/>
    </contour>
    <contour>
      <point x="592" y="1530" type="move" name="U"/>
    </contour>
  </outline>
</glyph>
<glyph name="LtnCapM" format="1">
  <advance width="1795"/>
  <unicode hex="004D"/>
  <outline>
    <contour>
      <point x="852" y="196" type="line"/>
      <point x="441" y="1393" type="line"/>
      <point x="279" y="1393" type="line"/>
      <point x="761" y="0" type="line"/>
      <point x="947" y="0" type="line"/>
      <point x="1426" y="1393" type="line"/>
      <point x="1267" y="1393" type="line"/>
    </contour>
    <contour>
      <point x="227" y="1393" type="line"/>
      <point x="227" y="1393"/>
      <point x="185" y="189"/>
      <point x="160" y="0" type="curve"/>
      <point x="336" y="0" type="line"/>
      <point x="367" y="1150" type="line"/>
      <point x="394" y="1393" type="line"/>
    </contour>
    <contour>
      <point x="1543" y="0" type="line"/>
      <point x="1516" y="189"/>
      <point x="1477" y="1393"/>
      <point x="1477" y="1393" type="curve"/>
      <point x="1310" y="1393" type="line"/>
      <point x="1340" y="1150" type="line"/>
      <point x="1367" y="0" type="line"/>
    </contour>
    <contour>
      <point x="885" y="-100" type="move" name="L"/>
    </contour>
    <contour>
      <point x="885" y="1530" type="move" name="U"/>
    </contour>
  </outline>
</glyph>
<glyph name="LtnCapN" format="1">
  <advance width="1500"/>
  <unicode hex="004E"/>
  <outline>
    <contour>
      <point x="198" y="1293" type="line"/>
      <point x="1090" y="0" type="line"/>
      <point x="1224" y="95" type="line"/>
      <point x="332" y="1393" type="line"/>
    </contour>
    <contour>
      <point x="1090" y="0" type="line"/>
      <point x="1248" y="0" type="line"/>
      <point x="1248" y="978" type="line" smooth="yes"/>
      <point x="1248" y="1166"/>
      <point x="1249" y="1317"/>
      <point x="1262" y="1393" type="curve"/>
      <point x="1090" y="1393" type="line"/>
    </contour>
    <contour>
      <point x="332" y="1393" type="line"/>
      <point x="160" y="1393" type="line"/>
      <point x="174" y="1317"/>
      <point x="174" y="1166"/>
      <point x="174" y="978" type="curve" smooth="yes"/>
      <point x="174" y="415" type="line" smooth="yes"/>
      <point x="174" y="227"/>
      <point x="174" y="76"/>
      <point x="160" y="0" type="curve"/>
      <point x="332" y="0" type="line"/>
    </contour>
    <contour>
      <point x="1230" y="0" type="move" name="H"/>
    </contour>
    <contour>
      <point x="737" y="-100" type="move" name="L"/>
    </contour>
    <contour>
      <point x="737" y="1530" type="move" name="U"/>
    </contour>
  </outline>
</glyph>
<glyph name="LtnCapO" format="1">
  <advance width="1460"/>
  <unicode hex="004F"/>
  <outline>
    <contour>
      <point x="1097" y="681" type="curve" smooth="yes"/>
      <point x="1097" y="342"/>
      <point x="925" y="142"/>
      <point x="691" y="142" type="curve" smooth="yes"/>
      <point x="443" y="142"/>
      <point x="281" y="361"/>
      <point x="281" y="710" type="curve" smooth="yes"/>
      <point x="281" y="1040"/>
      <point x="450" y="1249"/>
      <point x="691" y="1249" type="curve" smooth="yes"/>
      <point x="934" y="1249"/>
      <point x="1097" y="1033"/>
    </contour>
    <contour>
      <point x="1283" y="705" type="curve" smooth="yes"/>
      <point x="1283" y="1162"/>
      <point x="1004" y="1416"/>
      <point x="701" y="1416" type="curve" smooth="yes"/>
      <point x="393" y="1416"/>
      <point x="95" y="1143"/>
      <point x="95" y="686" type="curve" smooth="yes"/>
      <point x="95" y="229"/>
      <point x="375" y="-25"/>
      <point x="682" y="-25" type="curve" smooth="yes"/>
      <point x="986" y="-25"/>
      <point x="1283" y="247"/>
    </contour>
    <contour>
      <point x="717" y="0" type="move" name="H"/>
    </contour>
    <contour>
      <point x="717" y="-100" type="move" name="L"/>
    </contour>
    <contour>
      <point x="956" y="0" type="move" name="O"/>
    </contour>
    <contour>
      <point x="1460" y="1200" type="move" name="R"/>
    </contour>
    <contour>
      <point x="717" y="1530" type="move" name="U"/>
    </contour>
  </outline>
</glyph>
<glyph name="LtnCapP" format="1">
  <advance width="1195"/>
  <unicode hex="0050"/>
  <outline>
    <contour>
      <point x="356" y="539" type="line"/>
      <point x="418" y="532"/>
      <point x="496" y="529"/>
      <point x="565" y="529" type="curve" smooth="yes"/>
      <point x="879" y="529"/>
      <point x="1071" y="702"/>
      <point x="1071" y="983" type="curve" smooth="yes"/>
      <point x="1071" y="1261"/>
      <point x="874" y="1402"/>
      <point x="565" y="1402" type="curve" smooth="yes"/>
      <point x="362" y="1402"/>
      <point x="160" y="1393"/>
      <point x="160" y="1393" type="curve"/>
      <point x="174" y="1317"/>
      <point x="174" y="1141"/>
      <point x="174" y="954" type="curve"/>
      <point x="174" y="415" type="line" smooth="yes"/>
      <point x="174" y="227"/>
      <point x="174" y="76"/>
      <point x="160" y="0" type="curve"/>
      <point x="370" y="0" type="line"/>
      <point x="357" y="74"/>
      <point x="356" y="226"/>
      <point x="356" y="415" type="curve" smooth="yes"/>
    </contour>
    <contour>
      <point x="356" y="1245" type="line"/>
      <point x="420" y="1248"/>
      <point x="466" y="1250"/>
      <point x="556" y="1250" type="curve" smooth="yes"/>
      <point x="810" y="1250"/>
      <point x="890" y="1116"/>
      <point x="890" y="964" type="curve" smooth="yes"/>
      <point x="890" y="810"/>
      <point x="818" y="677"/>
      <point x="551" y="677" type="curve" smooth="yes"/>
      <point x="480" y="677"/>
      <point x="416" y="679"/>
      <point x="356" y="687" type="curve"/>
    </contour>
    <contour>
      <point x="637" y="-100" type="move" name="L"/>
    </contour>
    <contour>
      <point x="637" y="1530" type="move" name="U"/>
    </contour>
  </outline>
</glyph>
<glyph name="LtnCapR" format="1">
  <advance width="1305"/>
  <unicode hex="0052"/>
  <outline>
    <contour>
      <point x="356" y="596" type="line"/>
      <point x="599" y="596" type="line"/>
      <point x="775" y="596"/>
      <point x="1047" y="709"/>
      <point x="1047" y="1011" type="curve" smooth="yes"/>
      <point x="1047" y="1287"/>
      <point x="843" y="1402"/>
      <point x="546" y="1402" type="curve" smooth="yes"/>
      <point x="323" y="1402"/>
      <point x="160" y="1393"/>
      <point x="160" y="1393" type="curve"/>
      <point x="174" y="1317"/>
      <point x="174" y="1141"/>
      <point x="174" y="954" type="curve" smooth="yes"/>
      <point x="174" y="415" type="line"/>
      <point x="174" y="227"/>
      <point x="174" y="76"/>
      <point x="160" y="0" type="curve"/>
      <point x="370" y="0" type="line"/>
      <point x="357" y="74"/>
      <point x="356" y="227"/>
      <point x="356" y="415" type="curve"/>
    </contour>
    <contour>
      <point x="356" y="1245" type="line"/>
      <point x="406" y="1247"/>
      <point x="470" y="1250"/>
      <point x="537" y="1250" type="curve" smooth="yes"/>
      <point x="771" y="1250"/>
      <point x="866" y="1160"/>
      <point x="866" y="997" type="curve" smooth="yes"/>
      <point x="866" y="839"/>
      <point x="751" y="744"/>
      <point x="537" y="744" type="curve"/>
      <point x="356" y="744" type="line"/>
    </contour>
    <contour>
      <point x="543" y="606" type="line"/>
      <point x="952" y="0" type="line"/>
      <point x="1195" y="0" type="line"/>
      <point x="1131" y="70"/>
      <point x="689" y="677"/>
      <point x="689" y="677" type="curve"/>
    </contour>
    <contour>
      <point x="650" y="0" type="move" name="H"/>
    </contour>
    <contour>
      <point x="610" y="-100" type="move" name="L"/>
    </contour>
    <contour>
      <point x="610" y="1530" type="move" name="U"/>
    </contour>
  </outline>
</glyph>
<glyph name="LtnCapU" format="1">
  <advance width="1440"/>
  <unicode hex="0055"/>
  <outline>
    <contour>
      <point x="1009" y="1392" type="line"/>
      <point x="1009" y="533" type="line" smooth="yes"/>
      <point x="1009" y="284"/>
      <point x="931" y="128"/>
      <point x="685" y="128" type="curve" smooth="yes"/>
      <point x="434" y="128"/>
      <point x="356" y="284"/>
      <point x="356" y="533" type="curve" smooth="yes"/>
      <point x="356" y="1392" type="line"/>
      <point x="160" y="1392" type="line"/>
      <point x="173" y="1315"/>
      <point x="174" y="1165"/>
      <point x="174" y="977" type="curve" smooth="yes"/>
      <point x="174" y="490" type="line"/>
      <point x="174" y="180"/>
      <point x="336" y="-25"/>
      <point x="685" y="-25" type="curve" smooth="yes"/>
      <point x="1029" y="-25"/>
      <point x="1190" y="180"/>
      <point x="1190" y="490" type="curve"/>
      <point x="1190" y="977" type="line" smooth="yes"/>
      <point x="1190" y="1174"/>
      <point x="1192" y="1315"/>
      <point x="1205" y="1392" type="curve"/>
    </contour>
    <contour>
      <point x="707" y="0" type="move" name="H"/>
    </contour>
    <contour>
      <point x="707" y="-100" type="move" name="L"/>
    </contour>
    <contour>
      <point x="925" y="0" type="move" name="O"/>
    </contour>
    <contour>
      <point x="1400" y="1200" type="move" name="R"/>
    </contour>
    <contour>
      <point x="707" y="1530" type="move" name="U"/>
    </contour>
  </outline>
</glyph>
<glyph name="LtnCapV" format="1">
  <advance width="1365"/>
  <unicode hex="0056"/>
  <outline>
    <contour>
      <point x="1046" y="1393" type="line"/>
      <point x="643" y="186" type="line"/>
      <point x="240" y="1393" type="line"/>
      <point x="35" y="1393" type="line"/>
      <point x="66" y="1315"/>
      <point x="98" y="1229"/>
      <point x="164" y="1045" type="curve" smooth="yes"/>
      <point x="536" y="0" type="line"/>
      <point x="751" y="0" type="line"/>
      <point x="1118" y="1045" type="line" smooth="yes"/>
      <point x="1183" y="1230"/>
      <point x="1217" y="1315"/>
      <point x="1251" y="1393" type="curve"/>
    </contour>
    <contour>
      <point x="680" y="0" type="move" name="H"/>
    </contour>
    <contour>
      <point x="672" y="-100" type="move" name="L"/>
    </contour>
    <contour>
      <point x="880" y="0" type="move" name="O"/>
    </contour>
    <contour>
      <point x="672" y="1530" type="move" name="U"/>
    </contour>
  </outline>
</glyph>
<glyph name="LtnCapW" format="1">
  <advance width="2080"/>
  <unicode hex="0057"/>
  <outline>
    <contour>
      <point x="1414" y="0" type="line"/>
      <point x="1523" y="0" type="line"/>
      <point x="1814" y="1045" type="line" smooth="yes"/>
      <point x="1866" y="1230"/>
      <point x="1894" y="1315"/>
      <point x="1924" y="1393" type="curve"/>
      <point x="1714" y="1393" type="line"/>
      <point x="1404" y="124" type="line"/>
    </contour>
    <contour>
      <point x="1070" y="1393" type="line"/>
      <point x="894" y="1393" type="line"/>
      <point x="946" y="1245" type="line"/>
      <point x="1309" y="0" type="line"/>
      <point x="1414" y="0" type="line"/>
      <point x="1433" y="124" type="line"/>
    </contour>
    <contour>
      <point x="555" y="0" type="line"/>
      <point x="655" y="0" type="line"/>
      <point x="1018" y="1245" type="line"/>
      <point x="1070" y="1393" type="line"/>
      <point x="894" y="1393" type="line"/>
      <point x="536" y="124" type="line"/>
    </contour>
    <contour>
      <point x="250" y="1393" type="line"/>
      <point x="40" y="1393" type="line"/>
      <point x="70" y="1317"/>
      <point x="99" y="1227"/>
      <point x="150" y="1045" type="curve" smooth="yes"/>
      <point x="441" y="0" type="line"/>
      <point x="555" y="0" type="line"/>
      <point x="565" y="124" type="line"/>
    </contour>
    <contour>
      <point x="1027" y="-100" type="move" name="L"/>
    </contour>
    <contour>
      <point x="1027" y="1530" type="move" name="U"/>
    </contour>
  </outline>
</glyph>
<glyph name="LtnCapY" format="1">
  <advance width="1320"/>
  <unicode hex="0059"/>
  <outline>
    <contour>
      <point x="35" y="1393" type="line"/>
      <point x="142" y="1251"/>
      <point x="205" y="1142"/>
      <point x="278" y="1016" type="curve" smooth="yes"/>
      <point x="531" y="583" type="line"/>
      <point x="531" y="415" type="line" smooth="yes"/>
      <point x="531" y="227"/>
      <point x="531" y="76"/>
      <point x="517" y="0" type="curve"/>
      <point x="727" y="0" type="line"/>
      <point x="712" y="76"/>
      <point x="712" y="227"/>
      <point x="712" y="415" type="curve" smooth="yes"/>
      <point x="712" y="575" type="line"/>
      <point x="970" y="1016" type="line" smooth="yes"/>
      <point x="1042" y="1140"/>
      <point x="1096" y="1232"/>
      <point x="1208" y="1393" type="curve"/>
      <point x="989" y="1393" type="line"/>
      <point x="631" y="762" type="line"/>
      <point x="254" y="1393" type="line"/>
    </contour>
    <contour>
      <point x="650" y="-100" type="move" name="L"/>
    </contour>
    <contour>
      <point x="650" y="1530" type="move" name="U"/>
    </contour>
  </outline>
</glyph>
<glyph name="LtnCapZ" format="1">
  <advance width="1230"/>
  <unicode hex="005A"/>
  <outline>
    <contour>
      <point x="1058" y="1393" type="line"/>
      <point x="132" y="1393" type="line"/>
      <point x="132" y="1216" type="line"/>
      <point x="209" y="1233"/>
      <point x="321" y="1235"/>
      <point x="509" y="1235" type="curve" smooth="yes"/>
      <point x="833" y="1235" type="line"/>
      <point x="75" y="119" type="line"/>
      <point x="75" y="0" type="line"/>
      <point x="1086" y="0" type="line"/>
      <point x="1086" y="176" type="line"/>
      <point x="1010" y="163"/>
      <point x="858" y="157"/>
      <point x="671" y="157" type="curve" smooth="yes"/>
      <point x="299" y="157" type="line"/>
      <point x="1058" y="1269" type="line"/>
    </contour>
    <contour>
      <point x="605" y="-100" type="move" name="L"/>
    </contour>
    <contour>
      <point x="605" y="1530" type="move" name="U"/>
    </contour>
  </outline>
</glyph>
<glyph name="LftSqrBrac" format="1">
  <advance width="790"/>
  <unicode hex="005B"/>
  <outline>
    <contour>
      <point x="620" y="-410" type="line"/>
      <point x="620" y="-267" type="line"/>
      <point x="376" y="-267" type="line"/>
      <point x="376" y="1364" type="line"/>
      <point x="620" y="1364" type="line"/>
      <point x="620" y="1508" type="line"/>
      <point x="200" y="1508" type="line"/>
      <point x="200" y="-410" type="line"/>
    </contour>
  </outline>
</glyph>
<glyph name="GraveAccent" format="1">
  <advance width="580"/>
  <unicode hex="0060"/>
  <outline>
    <contour>
      <point x="1393" y="1128" type="line"/>
      <point x="1132" y="1431" type="line" smooth="yes"/>
      <point x="1104" y="1465"/>
      <point x="1085" y="1484"/>
      <point x="1030" y="1484" type="curve" smooth="yes"/>
      <point x="964" y="1484"/>
      <point x="940" y="1437"/>
      <point x="940" y="1396" type="curve" smooth="yes"/>
      <point x="940" y="1361"/>
      <point x="957" y="1336"/>
      <point x="985" y="1318" type="curve" smooth="yes"/>
      <point x="1282" y="1128" type="line"/>
    </contour>
    <contour>
      <point x="390" y="1635" type="move" name="U"/>
    </contour>
  </outline>
</glyph>
<glyph name="LtnSmB" format="1">
  <advance width="1155"/>
  <unicode hex="0062"/>
  <outline>
    <contour>
      <point x="130" y="1525" type="line"/>
      <point x="144" y="1418"/>
      <point x="144" y="1213"/>
      <point x="144" y="1077" type="curve" smooth="yes"/>
      <point x="144" y="892"/>
      <point x="144" y="216"/>
      <point x="144" y="61" type="curve"/>
      <point x="265" y="24"/>
      <point x="400" y="-25"/>
      <point x="555" y="-25" type="curve" smooth="yes"/>
      <point x="836" y="-25"/>
      <point x="1017" y="187"/>
      <point x="1017" y="514" type="curve" smooth="yes"/>
      <point x="1017" y="793"/>
      <point x="881" y="991"/>
      <point x="688" y="991" type="curve" smooth="yes"/>
      <point x="528" y="991"/>
      <point x="410" y="902"/>
      <point x="321" y="786" type="curve"/>
      <point x="321" y="873"/>
      <point x="321" y="1525"/>
      <point x="321" y="1525" type="curve"/>
    </contour>
    <contour>
      <point x="321" y="557" type="line"/>
      <point x="386" y="715"/>
      <point x="513" y="824"/>
      <point x="631" y="824" type="curve" smooth="yes"/>
      <point x="768" y="824"/>
      <point x="846" y="692"/>
      <point x="846" y="481" type="curve" smooth="yes"/>
      <point x="846" y="266"/>
      <point x="723" y="123"/>
      <point x="555" y="123" type="curve" smooth="yes"/>
      <point x="472" y="123"/>
      <point x="414" y="136"/>
      <point x="321" y="175" type="curve"/>
    </contour>
    <contour>
      <point x="590" y="0" type="move" name="H"/>
    </contour>
    <contour>
      <point x="590" y="-100" type="move" name="L"/>
    </contour>
    <contour>
      <point x="1155" y="1000" type="move" name="R"/>
    </contour>
    <contour>
      <point x="590" y="1635" type="move" name="U"/>
    </contour>
  </outline>
</glyph>
<glyph name="LtnSmC" format="1">
  <advance width="1020"/>
  <unicode hex="0063"/>
  <outline>
    <contour>
      <point x="868" y="247" type="line"/>
      <point x="785" y="173"/>
      <point x="691" y="132"/>
      <point x="577" y="132" type="curve" smooth="yes"/>
      <point x="392" y="132"/>
      <point x="276" y="271"/>
      <point x="276" y="476" type="curve" smooth="yes"/>
      <point x="276" y="701"/>
      <point x="407" y="834"/>
      <point x="577" y="834" type="curve" smooth="yes"/>
      <point x="675" y="834"/>
      <point x="758" y="801"/>
      <point x="844" y="738" type="curve"/>
      <point x="877" y="910" type="line"/>
      <point x="808" y="958"/>
      <point x="718" y="991"/>
      <point x="591" y="991" type="curve" smooth="yes"/>
      <point x="288" y="991"/>
      <point x="95" y="754"/>
      <point x="95" y="466" type="curve" smooth="yes"/>
      <point x="95" y="162"/>
      <point x="302" y="-25"/>
      <point x="558" y="-25" type="curve" smooth="yes"/>
      <point x="701" y="-25"/>
      <point x="790" y="7"/>
      <point x="887" y="80" type="curve"/>
    </contour>
    <contour>
      <point x="580" y="0" type="move" name="H"/>
    </contour>
    <contour>
      <point x="580" y="-100" type="move" name="L"/>
    </contour>
    <contour>
      <point x="1020" y="1000" type="move" name="R"/>
    </contour>
    <contour>
      <point x="570" y="1100" type="move" name="U"/>
    </contour>
  </outline>
</glyph>
<glyph name="LtnSmE" format="1">
  <advance width="1095"/>
  <unicode hex="0065"/>
  <outline>
    <contour>
      <point x="948" y="462" type="line"/>
      <point x="949" y="479"/>
      <point x="949" y="519"/>
      <point x="949" y="536" type="curve" smooth="yes"/>
      <point x="949" y="751"/>
      <point x="868" y="991"/>
      <point x="553" y="991" type="curve" smooth="yes"/>
      <point x="271" y="991"/>
      <point x="95" y="787"/>
      <point x="95" y="471" type="curve" smooth="yes"/>
      <point x="95" y="147"/>
      <point x="310" y="-25"/>
      <point x="553" y="-25" type="curve" smooth="yes"/>
      <point x="700" y="-25"/>
      <point x="818" y="1"/>
      <point x="954" y="70" type="curve"/>
      <point x="935" y="228" type="line"/>
      <point x="818" y="157"/>
      <point x="700" y="132"/>
      <point x="577" y="132" type="curve" smooth="yes"/>
      <point x="399" y="132"/>
      <point x="271" y="245"/>
      <point x="271" y="481" type="curve" smooth="yes"/>
      <point x="271" y="733"/>
      <point x="372" y="848"/>
      <point x="539" y="848" type="curve" smooth="yes"/>
      <point x="677" y="848"/>
      <point x="777" y="759"/>
      <point x="777" y="595" type="curve"/>
      <point x="238" y="595" type="line"/>
      <point x="238" y="462" type="line"/>
    </contour>
    <contour>
      <point x="545" y="0" type="move" name="H"/>
    </contour>
    <contour>
      <point x="569" y="-100" type="move" name="L"/>
    </contour>
    <contour>
      <point x="900" y="0" type="move" name="O"/>
    </contour>
    <contour>
      <point x="1095" y="1000" type="move" name="R"/>
    </contour>
    <contour>
      <point x="569" y="1100" type="move" name="U"/>
    </contour>
  </outline>
</glyph>
<glyph name="LtnSmG" format="1">
  <advance width="1125"/>
  <unicode hex="0067"/>
  <outline>
    <contour>
      <point x="949" y="899" type="line"/>
      <point x="845" y="933"/>
      <point x="717" y="971"/>
      <point x="601" y="971" type="curve" smooth="yes"/>
      <point x="253" y="971"/>
      <point x="105" y="686"/>
      <point x="105" y="393" type="curve" smooth="yes"/>
      <point x="105" y="90"/>
      <point x="268" y="-26"/>
      <point x="444" y="-26" type="curve" smooth="yes"/>
      <point x="549" y="-26"/>
      <point x="674" y="39"/>
      <point x="773" y="164" type="curve"/>
      <point x="773" y="-31" type="line" smooth="yes"/>
      <point x="773" y="-252"/>
      <point x="614" y="-317"/>
      <point x="515" y="-317" type="curve" smooth="yes"/>
      <point x="421" y="-317"/>
      <point x="328" y="-273"/>
      <point x="239" y="-208" type="curve"/>
      <point x="177" y="-356" type="line"/>
      <point x="278" y="-424"/>
      <point x="404" y="-470"/>
      <point x="525" y="-470" type="curve" smooth="yes"/>
      <point x="737" y="-470"/>
      <point x="949" y="-334"/>
      <point x="949" y="2" type="curve" smooth="yes"/>
    </contour>
    <contour>
      <point x="773" y="355" type="line"/>
      <point x="690" y="215"/>
      <point x="559" y="136"/>
      <point x="463" y="136" type="curve" smooth="yes"/>
      <point x="360" y="136"/>
      <point x="281" y="205"/>
      <point x="281" y="441" type="curve" smooth="yes"/>
      <point x="281" y="621"/>
      <point x="364" y="808"/>
      <point x="572" y="808" type="curve" smooth="yes"/>
      <point x="631" y="808"/>
      <point x="713" y="793"/>
      <point x="773" y="770" type="curve"/>
    </contour>
    <contour>
      <point x="555" y="-500" type="move" name="L"/>
    </contour>
    <contour>
      <point x="1125" y="1000" type="move" name="R"/>
    </contour>
    <contour>
      <point x="595" y="1100" type="move" name="U"/>
    </contour>
  </outline>
</glyph>
<glyph name="LtnSmI" format="1">
  <advance width="565"/>
  <unicode hex="0069"/>
  <outline>
    <contour>
      <point x="365" y="973" type="line"/>
      <point x="174" y="973" type="line"/>
      <point x="186" y="873"/>
      <point x="188" y="692"/>
      <point x="188" y="506" type="curve" smooth="yes"/>
      <point x="188" y="321"/>
      <point x="188" y="0"/>
      <point x="188" y="0" type="curve"/>
      <point x="384" y="0" type="line"/>
      <point x="372" y="102"/>
      <point x="365" y="330"/>
      <point x="365" y="453" type="curve" smooth="yes"/>
    </contour>
    <contour>
      <point x="155" y="1283" type="curve" smooth="yes"/>
      <point x="155" y="1213"/>
      <point x="204" y="1154"/>
      <point x="274" y="1154" type="curve" smooth="yes"/>
      <point x="346" y="1154"/>
      <point x="398" y="1213"/>
      <point x="398" y="1283" type="curve" smooth="yes"/>
      <point x="398" y="1354"/>
      <point x="346" y="1412"/>
      <point x="274" y="1412" type="curve" smooth="yes"/>
      <point x="204" y="1412"/>
      <point x="155" y="1354"/>
    </contour>
    <contour>
      <point x="282" y="0" type="move" name="H"/>
    </contour>
    <contour>
      <point x="285" y="-100" type="move" name="L"/>
    </contour>
    <contour>
      <point x="500" y="0" type="move" name="O"/>
    </contour>
    <contour>
      <point x="555" y="1000" type="move" name="R"/>
    </contour>
    <contour>
      <point x="282" y="1100" type="move" name="U"/>
    </contour>
  </outline>
</glyph>
<glyph name="LtnSmK" format="1">
  <advance width="1035"/>
  <unicode hex="006B"/>
  <outline>
    <contour>
      <point x="321" y="0" type="line"/>
      <point x="321" y="1526" type="line"/>
      <point x="130" y="1526" type="line"/>
      <point x="144" y="1444"/>
      <point x="144" y="1283"/>
      <point x="144" y="1078" type="curve" smooth="yes"/>
      <point x="144" y="891"/>
      <point x="144" y="0"/>
      <point x="144" y="0" type="curve"/>
    </contour>
    <contour>
      <point x="707" y="973" type="line"/>
      <point x="273" y="525" type="line"/>
      <point x="422" y="500" type="line"/>
      <point x="946" y="973" type="line"/>
    </contour>
    <contour>
      <point x="297" y="525" type="line"/>
      <point x="741" y="0" type="line"/>
      <point x="974" y="0" type="line"/>
      <point x="397" y="630" type="line"/>
    </contour>
    <contour>
      <point x="880" y="0" type="move" name="H"/>
    </contour>
    <contour>
      <point x="572" y="-100" type="move" name="L"/>
    </contour>
    <contour>
      <point x="1035" y="1000" type="move" name="R"/>
    </contour>
    <contour>
      <point x="572" y="1635" type="move" name="U"/>
    </contour>
  </outline>
</glyph>
<glyph name="LtnSmL" format="1">
  <advance width="565"/>
  <unicode hex="006C"/>
  <outline>
    <contour>
      <point x="366" y="1526" type="line"/>
      <point x="170" y="1526" type="line"/>
      <point x="182" y="1417"/>
      <point x="189" y="1263"/>
      <point x="189" y="1078" type="curve"/>
      <point x="189" y="0" type="line"/>
      <point x="385" y="0" type="line"/>
      <point x="372" y="104"/>
      <point x="366" y="330"/>
      <point x="366" y="453" type="curve" smooth="yes"/>
    </contour>
    <contour>
      <point x="290" y="0" type="move" name="H"/>
    </contour>
    <contour>
      <point x="290" y="-100" type="move" name="L"/>
    </contour>
    <contour>
      <point x="550" y="1000" type="move" name="R"/>
    </contour>
    <contour>
      <point x="282" y="1635" type="move" name="U"/>
    </contour>
  </outline>
</glyph>
<glyph name="LtnSmN" format="1">
  <advance width="1185"/>
  <unicode hex="006E"/>
  <outline>
    <contour>
      <point x="1007" y="0" type="line"/>
      <point x="1007" y="0"/>
      <point x="1007" y="438"/>
      <point x="1007" y="596" type="curve" smooth="yes"/>
      <point x="1007" y="859"/>
      <point x="895" y="992"/>
      <point x="692" y="992" type="curve" smooth="yes"/>
      <point x="557" y="992"/>
      <point x="436" y="932"/>
      <point x="315" y="787" type="curve"/>
      <point x="308" y="833"/>
      <point x="291" y="933"/>
      <point x="277" y="973" type="curve"/>
      <point x="105" y="973" type="line"/>
      <point x="126" y="907"/>
      <point x="153" y="774"/>
      <point x="153" y="587" type="curve" smooth="yes"/>
      <point x="153" y="401"/>
      <point x="153" y="0"/>
      <point x="153" y="0" type="curve"/>
      <point x="329" y="0" type="line"/>
      <point x="329" y="553" type="line"/>
      <point x="371" y="683"/>
      <point x="502" y="825"/>
      <point x="639" y="825" type="curve" smooth="yes"/>
      <point x="768" y="825"/>
      <point x="830" y="763"/>
      <point x="830" y="525" type="curve" smooth="yes"/>
      <point x="830" y="394"/>
      <point x="830" y="0"/>
      <point x="830" y="0" type="curve"/>
    </contour>
    <contour>
      <point x="600" y="0" type="move" name="H"/>
    </contour>
    <contour>
      <point x="600" y="-100" type="move" name="L"/>
    </contour>
    <contour>
      <point x="600" y="1100" type="move" name="U"/>
    </contour>
  </outline>
</glyph>
<glyph name="LtnSmP" format="1">
  <advance width="1170"/>
  <unicode hex="0070"/>
  <outline>
    <contour>
      <point x="105" y="951" type="line"/>
      <point x="148" y="843"/>
      <point x="153" y="678"/>
      <point x="153" y="440" type="curve" smooth="yes"/>
      <point x="153" y="255"/>
      <point x="153" y="-490"/>
      <point x="153" y="-490" type="curve"/>
      <point x="353" y="-490" type="line"/>
      <point x="337" y="-409"/>
      <point x="329" y="-318"/>
      <point x="329" y="-166" type="curve"/>
      <point x="329" y="59" type="line"/>
      <point x="420" y="-5"/>
      <point x="494" y="-46"/>
      <point x="596" y="-46" type="curve" smooth="yes"/>
      <point x="836" y="-46"/>
      <point x="1030" y="162"/>
      <point x="1030" y="488" type="curve" smooth="yes"/>
      <point x="1030" y="767"/>
      <point x="885" y="970"/>
      <point x="668" y="970" type="curve" smooth="yes"/>
      <point x="527" y="970"/>
      <point x="405" y="888"/>
      <point x="315" y="769" type="curve"/>
      <point x="306" y="857"/>
      <point x="291" y="918"/>
      <point x="277" y="951" type="curve"/>
    </contour>
    <contour>
      <point x="329" y="526" type="line"/>
      <point x="400" y="710"/>
      <point x="525" y="807"/>
      <point x="634" y="807" type="curve" smooth="yes"/>
      <point x="772" y="807"/>
      <point x="854" y="671"/>
      <point x="854" y="459" type="curve" smooth="yes"/>
      <point x="854" y="244"/>
      <point x="731" y="111"/>
      <point x="596" y="111" type="curve" smooth="yes"/>
      <point x="509" y="111"/>
      <point x="460" y="134"/>
      <point x="329" y="226" type="curve"/>
    </contour>
    <contour>
      <point x="265" y="-435" type="move" name="H"/>
    </contour>
    <contour>
      <point x="590" y="-500" type="move" name="L"/>
    </contour>
    <contour>
      <point x="1170" y="1000" type="move" name="R"/>
    </contour>
    <contour>
      <point x="590" y="1100" type="move" name="U"/>
    </contour>
  </outline>
</glyph>
<glyph name="LtnSmR" format="1">
  <advance width="890"/>
  <unicode hex="0072"/>
  <outline>
    <contour>
      <point x="329" y="0" type="line"/>
      <point x="329" y="553" type="line"/>
      <point x="371" y="683"/>
      <point x="502" y="820"/>
      <point x="582" y="820" type="curve" smooth="yes"/>
      <point x="657" y="820"/>
      <point x="692" y="735"/>
      <point x="692" y="639" type="curve"/>
      <point x="844" y="673" type="line"/>
      <point x="844" y="840"/>
      <point x="784" y="992"/>
      <point x="625" y="992" type="curve" smooth="yes"/>
      <point x="538" y="992"/>
      <point x="407" y="920"/>
      <point x="315" y="787" type="curve"/>
      <point x="308" y="833"/>
      <point x="291" y="933"/>
      <point x="277" y="973" type="curve"/>
      <point x="105" y="973" type="line"/>
      <point x="126" y="907"/>
      <point x="153" y="774"/>
      <point x="153" y="587" type="curve" smooth="yes"/>
      <point x="153" y="0" type="line"/>
    </contour>
    <contour>
      <point x="270" y="0" type="move" name="H"/>
    </contour>
    <contour>
      <point x="255" y="-100" type="move" name="L"/>
    </contour>
    <contour>
      <point x="455" y="1100" type="move" name="U"/>
    </contour>
  </outline>
</glyph>
<glyph name="LtnSmT" format="1">
  <advance width="835"/>
  <unicode hex="0074"/>
  <outline>
    <contour>
      <point x="726" y="204" type="line"/>
      <point x="642" y="157"/>
      <point x="574" y="132"/>
      <point x="519" y="132" type="curve" smooth="yes"/>
      <point x="434" y="132"/>
      <point x="397" y="174"/>
      <point x="397" y="371" type="curve" smooth="yes"/>
      <point x="397" y="503"/>
      <point x="397" y="1258"/>
      <point x="397" y="1258" type="curve"/>
      <point x="221" y="1258" type="line"/>
      <point x="221" y="1258"/>
      <point x="221" y="414"/>
      <point x="221" y="256" type="curve" smooth="yes"/>
      <point x="221" y="36"/>
      <point x="341" y="-25"/>
      <point x="490" y="-25" type="curve" smooth="yes"/>
      <point x="557" y="-25"/>
      <point x="639" y="-5"/>
      <point x="726" y="51" type="curve"/>
    </contour>
    <contour>
      <point x="30" y="810" type="line"/>
      <point x="707" y="810" type="line"/>
      <point x="707" y="948" type="line"/>
      <point x="30" y="948" type="line"/>
    </contour>
    <contour>
      <point x="475" y="0" type="move" name="H"/>
    </contour>
    <contour>
      <point x="475" y="-100" type="move" name="L"/>
    </contour>
    <contour>
      <point x="835" y="1000" type="move" name="R"/>
    </contour>
    <contour>
      <point x="325" y="1360" type="move" name="U"/>
    </contour>
  </outline>
</glyph>
<glyph name="LtnSmU" format="1">
  <advance width="1185"/>
  <unicode hex="0075"/>
  <outline>
    <contour>
      <point x="1046" y="-1" type="line"/>
      <point x="1006" y="106"/>
      <point x="984" y="243"/>
      <point x="984" y="428" type="curve" smooth="yes"/>
      <point x="984" y="615"/>
      <point x="984" y="972"/>
      <point x="984" y="972" type="curve"/>
      <point x="788" y="972" type="line"/>
      <point x="806" y="856"/>
      <point x="808" y="793"/>
      <point x="808" y="667" type="curve" smooth="yes"/>
      <point x="808" y="400" type="line"/>
      <point x="757" y="283"/>
      <point x="605" y="132"/>
      <point x="493" y="132" type="curve" smooth="yes"/>
      <point x="372" y="132"/>
      <point x="331" y="226"/>
      <point x="331" y="442" type="curve" smooth="yes"/>
      <point x="331" y="574"/>
      <point x="331" y="972"/>
      <point x="331" y="972" type="curve"/>
      <point x="135" y="972" type="line"/>
      <point x="152" y="857"/>
      <point x="154" y="788"/>
      <point x="154" y="667" type="curve" smooth="yes"/>
      <point x="154" y="649"/>
      <point x="154" y="403"/>
      <point x="154" y="385" type="curve" smooth="yes"/>
      <point x="154" y="113"/>
      <point x="256" y="-25"/>
      <point x="459" y="-25" type="curve" smooth="yes"/>
      <point x="593" y="-25"/>
      <point x="716" y="49"/>
      <point x="831" y="190" type="curve"/>
      <point x="841" y="118"/>
      <point x="866" y="43"/>
      <point x="884" y="-1" type="curve"/>
    </contour>
    <contour>
      <point x="525" y="0" type="move" name="H"/>
    </contour>
    <contour>
      <point x="589" y="-100" type="move" name="L"/>
    </contour>
    <contour>
      <point x="700" y="0" type="move" name="O"/>
    </contour>
    <contour>
      <point x="1185" y="1000" type="move" name="R"/>
    </contour>
    <contour>
      <point x="589" y="1100" type="move" name="U"/>
    </contour>
  </outline>
</glyph>
<glyph name="LtnSmV" format="1">
  <advance width="1070"/>
  <unicode hex="0076"/>
  <outline>
    <contour>
      <point x="802" y="973" type="line"/>
      <point x="511" y="191" type="line"/>
      <point x="220" y="973" type="line"/>
      <point x="20" y="973" type="line"/>
      <point x="72" y="863"/>
      <point x="137" y="712"/>
      <point x="168" y="634" type="curve" smooth="yes"/>
      <point x="227" y="487"/>
      <point x="421" y="0"/>
      <point x="421" y="0" type="curve"/>
      <point x="602" y="0" type="line"/>
      <point x="602" y="0"/>
      <point x="804" y="511"/>
      <point x="855" y="634" type="curve" smooth="yes"/>
      <point x="886" y="710"/>
      <point x="948" y="863"/>
      <point x="1003" y="973" type="curve"/>
    </contour>
    <contour>
      <point x="549" y="0" type="move" name="H"/>
    </contour>
    <contour>
      <point x="535" y="-100" type="move" name="L"/>
    </contour>
    <contour>
      <point x="725" y="0" type="move" name="O"/>
    </contour>
    <contour>
      <point x="535" y="1100" type="move" name="U"/>
    </contour>
  </outline>
</glyph>
<glyph name="LtnSmX" format="1">
  <advance width="1085"/>
  <unicode hex="0078"/>
  <outline>
    <contour>
      <point x="770" y="0" type="line"/>
      <point x="990" y="0" type="line"/>
      <point x="887" y="135"/>
      <point x="863" y="162"/>
      <point x="794" y="258" type="curve" smooth="yes"/>
      <point x="279" y="973" type="line"/>
      <point x="60" y="973" type="line"/>
      <point x="163" y="846"/>
      <point x="196" y="804"/>
      <point x="260" y="716" type="curve"/>
    </contour>
    <contour>
      <point x="469" y="588" type="line"/>
      <point x="241" y="258" type="line" smooth="yes"/>
      <point x="183" y="174"/>
      <point x="155" y="136"/>
      <point x="50" y="0" type="curve"/>
      <point x="265" y="0" type="line"/>
      <point x="533" y="385" type="line"/>
    </contour>
    <contour>
      <point x="560" y="386" type="line"/>
      <point x="785" y="716" type="line" smooth="yes"/>
      <point x="845" y="803"/>
      <point x="877" y="845"/>
      <point x="975" y="973" type="curve"/>
      <point x="761" y="973" type="line"/>
      <point x="498" y="587" type="line"/>
    </contour>
    <contour>
      <point x="900" y="0" type="move" name="H"/>
    </contour>
    <contour>
      <point x="542" y="-100" type="move" name="L"/>
    </contour>
    <contour>
      <point x="542" y="1100" type="move" name="U"/>
    </contour>
  </outline>
</glyph>
<glyph name="InvExclamationMrk" format="1">
  <advance width="764"/>
  <unicode hex="00A1"/>
  <outline>
    <contour>
      <point x="276" y="611" type="line"/>
      <point x="269" y="334"/>
      <point x="269" y="4"/>
      <point x="233" y="-410" type="curve"/>
      <point x="476" y="-410" type="line"/>
      <point x="439" y="4"/>
      <point x="439" y="334"/>
      <point x="433" y="611" type="curve"/>
    </contour>
    <contour>
      <point x="227" y="914" type="curve" smooth="yes"/>
      <point x="227" y="844"/>
      <point x="284" y="786"/>
      <point x="355" y="786" type="curve" smooth="yes"/>
      <point x="425" y="786"/>
      <point x="483" y="844"/>
      <point x="483" y="914" type="curve" smooth="yes"/>
      <point x="483" y="985"/>
      <point x="425" y="1042"/>
      <point x="355" y="1042" type="curve" smooth="yes"/>
      <point x="284" y="1042"/>
      <point x="227" y="985"/>
    </contour>
  </outline>
</glyph>
<glyph name="YenSgn" format="1">
  <advance width="1200"/>
  <unicode hex="00A5"/>
  <outline>
    <contour>
      <point x="521" y="508" type="line"/>
      <point x="645" y="612" type="line"/>
      <point x="256" y="1323" type="line"/>
      <point x="64" y="1323" type="line"/>
      <point x="158" y="1188"/>
      <point x="213" y="1085"/>
      <point x="276" y="965" type="curve"/>
    </contour>
    <contour>
      <point x="633" y="508" type="line"/>
      <point x="878" y="965" type="line" smooth="yes"/>
      <point x="941" y="1083"/>
      <point x="987" y="1170"/>
      <point x="1086" y="1323" type="curve"/>
      <point x="894" y="1323" type="line"/>
      <point x="525" y="612" type="line"/>
    </contour>
    <contour>
      <point x="496" y="630" type="line"/>
      <point x="496" y="394" type="line" smooth="yes"/>
      <point x="496" y="216"/>
      <point x="496" y="73"/>
      <point x="484" y="0" type="curve"/>
      <point x="666" y="0" type="line"/>
      <point x="654" y="73"/>
      <point x="654" y="216"/>
      <point x="654" y="394" type="curve" smooth="yes"/>
      <point x="654" y="630" type="line"/>
    </contour>
    <contour>
      <point x="194" y="305" type="line"/>
      <point x="965" y="305" type="line"/>
      <point x="965" y="444" type="line"/>
      <point x="194" y="444" type="line"/>
    </contour>
    <contour>
      <point x="194" y="544" type="line"/>
      <point x="965" y="544" type="line"/>
      <point x="965" y="682" type="line"/>
      <point x="194" y="682" type="line"/>
    </contour>
  </outline>
</glyph>
<glyph name="BrokenBar" format="1">
  <advance width="1024"/>
  <unicode hex="00A6"/>
  <outline>
    <contour>
      <point x="440" y="407" type="line"/>
      <point x="440" y="-390" type="line"/>
      <point x="583" y="-390" type="line"/>
      <point x="583" y="407" type="line"/>
    </contour>
    <contour>
      <point x="583" y="721" type="line"/>
      <point x="583" y="1508" type="line"/>
      <point x="440" y="1508" type="line"/>
      <point x="440" y="721" type="line"/>
    </contour>
  </outline>
</glyph>
<glyph name="SectionSgn" format="1">
  <advance width="1024"/>
  <unicode hex="00A7"/>
  <outline>
    <contour>
      <point x="477" y="121" type="line"/>
      <point x="692" y="121"/>
      <point x="845" y="266"/>
      <point x="845" y="467" type="curve" smooth="yes"/>
      <point x="845" y="610"/>
      <point x="754" y="699"/>
      <point x="582" y="823" type="curve" smooth="yes"/>
      <point x="413" y="945"/>
      <point x="301" y="1013"/>
      <point x="301" y="1111" type="curve" smooth="yes"/>
      <point x="301" y="1176"/>
      <point x="356" y="1242"/>
      <point x="487" y="1242" type="curve" smooth="yes"/>
      <point x="605" y="1242"/>
      <point x="704" y="1189"/>
      <point x="768" y="1152" type="curve"/>
      <point x="802" y="1319" type="line"/>
      <point x="736" y="1355"/>
      <point x="635" y="1395"/>
      <point x="496" y="1395" type="curve" smooth="yes"/>
      <point x="225" y="1395"/>
      <point x="129" y="1225"/>
      <point x="129" y="1071" type="curve" smooth="yes"/>
      <point x="129" y="952"/>
      <point x="221" y="846"/>
      <point x="423" y="719" type="curve" smooth="yes"/>
      <point x="618" y="597"/>
      <point x="673" y="517"/>
      <point x="673" y="436" type="curve" smooth="yes"/>
      <point x="673" y="348"/>
      <point x="594" y="274"/>
      <point x="482" y="274" type="curve"/>
    </contour>
    <contour>
      <point x="496" y="832" type="line"/>
      <point x="291" y="832"/>
      <point x="129" y="718"/>
      <point x="129" y="523" type="curve" smooth="yes"/>
      <point x="129" y="355"/>
      <point x="220" y="260"/>
      <point x="391" y="141" type="curve" smooth="yes"/>
      <point x="560" y="23"/>
      <point x="673" y="-57"/>
      <point x="673" y="-179" type="curve" smooth="yes"/>
      <point x="673" y="-245"/>
      <point x="594" y="-317"/>
      <point x="482" y="-317" type="curve" smooth="yes"/>
      <point x="381" y="-317"/>
      <point x="244" y="-266"/>
      <point x="158" y="-189" type="curve"/>
      <point x="110" y="-360" type="line"/>
      <point x="185" y="-419"/>
      <point x="323" y="-470"/>
      <point x="477" y="-470" type="curve" smooth="yes"/>
      <point x="682" y="-470"/>
      <point x="845" y="-327"/>
      <point x="845" y="-155" type="curve" smooth="yes"/>
      <point x="845" y="-11"/>
      <point x="753" y="118"/>
      <point x="551" y="245" type="curve" smooth="yes"/>
      <point x="356" y="367"/>
      <point x="301" y="442"/>
      <point x="301" y="527" type="curve" smooth="yes"/>
      <point x="301" y="620"/>
      <point x="380" y="680"/>
      <point x="492" y="680" type="curve"/>
    </contour>
  </outline>
</glyph>
<glyph name="CopyrightSgn" format="1">
  <advance width="1515"/>
  <unicode hex="00A9"/>
  <outline>
    <contour>
      <point x="723" y="1301" type="curve" smooth="yes"/>
      <point x="1008" y="1301"/>
      <point x="1281" y="1091"/>
      <point x="1281" y="695" type="curve" smooth="yes"/>
      <point x="1281" y="299"/>
      <point x="1008" y="89"/>
      <point x="723" y="89" type="curve" smooth="yes"/>
      <point x="437" y="89"/>
      <point x="169" y="299"/>
      <point x="169" y="695" type="curve" smooth="yes"/>
      <point x="169" y="1091"/>
      <point x="437" y="1301"/>
    </contour>
    <contour>
      <point x="723" y="1416" type="curve" smooth="yes"/>
      <point x="381" y="1416"/>
      <point x="50" y="1172"/>
      <point x="50" y="695" type="curve" smooth="yes"/>
      <point x="50" y="209"/>
      <point x="381" y="-25"/>
      <point x="723" y="-25" type="curve" smooth="yes"/>
      <point x="1055" y="-25"/>
      <point x="1400" y="209"/>
      <point x="1400" y="695" type="curve" smooth="yes"/>
      <point x="1400" y="1172"/>
      <point x="1055" y="1416"/>
    </contour>
    <contour>
      <point x="966" y="481" type="line"/>
      <point x="899" y="413"/>
      <point x="816" y="366"/>
      <point x="727" y="366" type="curve" smooth="yes"/>
      <point x="565" y="366"/>
      <point x="460" y="531"/>
      <point x="460" y="700" type="curve" smooth="yes"/>
      <point x="460" y="916"/>
      <point x="584" y="1034"/>
      <point x="732" y="1034" type="curve" smooth="yes"/>
      <point x="806" y="1034"/>
      <point x="870" y="1008"/>
      <point x="947" y="939" type="curve"/>
      <point x="985" y="1053" type="line"/>
      <point x="898" y="1118"/>
      <point x="819" y="1139"/>
      <point x="732" y="1139" type="curve" smooth="yes"/>
      <point x="537" y="1139"/>
      <point x="341" y="980"/>
      <point x="341" y="686" type="curve" smooth="yes"/>
      <point x="341" y="430"/>
      <point x="492" y="256"/>
      <point x="718" y="256" type="curve" smooth="yes"/>
      <point x="810" y="256"/>
      <point x="919" y="291"/>
      <point x="990" y="357" type="curve"/>
    </contour>
  </outline>
</glyph>
<glyph name="RegisteredSgn" format="1">
  <advance width="1615"/>
  <unicode hex="00AE"/>
  <outline>
    <contour>
      <point x="823" y="1416" type="curve" smooth="yes"/>
      <point x="481" y="1416"/>
      <point x="150" y="1172"/>
      <point x="150" y="695" type="curve" smooth="yes"/>
      <point x="150" y="209"/>
      <point x="481" y="-25"/>
      <point x="823" y="-25" type="curve" smooth="yes"/>
      <point x="1155" y="-25"/>
      <point x="1500" y="209"/>
      <point x="1500" y="695" type="curve" smooth="yes"/>
      <point x="1500" y="1172"/>
      <point x="1155" y="1416"/>
    </contour>
    <contour>
      <point x="823" y="1301" type="curve" smooth="yes"/>
      <point x="1108" y="1301"/>
      <point x="1381" y="1091"/>
      <point x="1381" y="695" type="curve" smooth="yes"/>
      <point x="1381" y="299"/>
      <point x="1108" y="89"/>
      <point x="823" y="89" type="curve" smooth="yes"/>
      <point x="537" y="89"/>
      <point x="269" y="299"/>
      <point x="269" y="695" type="curve" smooth="yes"/>
      <point x="269" y="1091"/>
      <point x="537" y="1301"/>
    </contour>
    <contour>
      <point x="651" y="636" type="line"/>
      <point x="769" y="636" type="line"/>
      <point x="1018" y="276" type="line"/>
      <point x="1166" y="276" type="line"/>
      <point x="1133" y="312"/>
      <point x="949" y="559"/>
      <point x="885" y="648" type="curve"/>
      <point x="979" y="672"/>
      <point x="1080" y="741"/>
      <point x="1080" y="881" type="curve" smooth="yes"/>
      <point x="1080" y="1048"/>
      <point x="948" y="1125"/>
      <point x="765" y="1125" type="curve" smooth="yes"/>
      <point x="623" y="1125"/>
      <point x="527" y="1115"/>
      <point x="527" y="1115" type="curve"/>
      <point x="534" y="1066"/>
      <point x="534" y="975"/>
      <point x="534" y="856" type="curve" smooth="yes"/>
      <point x="534" y="522" type="line" smooth="yes"/>
      <point x="534" y="402"/>
      <point x="534" y="324"/>
      <point x="527" y="276" type="curve"/>
      <point x="660" y="276" type="line"/>
      <point x="652" y="323"/>
      <point x="651" y="402"/>
      <point x="651" y="522" type="curve"/>
    </contour>
    <contour>
      <point x="651" y="1022" type="line"/>
      <point x="683" y="1023"/>
      <point x="719" y="1025"/>
      <point x="761" y="1025" type="curve" smooth="yes"/>
      <point x="901" y="1025"/>
      <point x="961" y="967"/>
      <point x="961" y="872" type="curve" smooth="yes"/>
      <point x="961" y="781"/>
      <point x="889" y="731"/>
      <point x="761" y="731" type="curve"/>
      <point x="651" y="731" type="line"/>
    </contour>
  </outline>
</glyph>
<glyph name="DegreeSgn" format="1">
  <advance width="640"/>
  <unicode hex="00B0"/>
  <outline>
    <contour>
      <point x="437" y="1224" type="curve"/>
      <point x="437" y="1152"/>
      <point x="380" y="1095"/>
      <point x="309" y="1095" type="curve" smooth="yes"/>
      <point x="237" y="1095"/>
      <point x="180" y="1152"/>
      <point x="180" y="1224" type="curve" smooth="yes"/>
      <point x="180" y="1295"/>
      <point x="237" y="1352"/>
      <point x="309" y="1352" type="curve" smooth="yes"/>
      <point x="380" y="1352"/>
      <point x="437" y="1295"/>
    </contour>
    <contour>
      <point x="70" y="1224" type="curve"/>
      <point x="70" y="1090"/>
      <point x="175" y="985"/>
      <point x="309" y="985" type="curve" smooth="yes"/>
      <point x="442" y="985"/>
      <point x="547" y="1090"/>
      <point x="547" y="1224" type="curve" smooth="yes"/>
      <point x="547" y="1357"/>
      <point x="442" y="1462"/>
      <point x="309" y="1462" type="curve" smooth="yes"/>
      <point x="175" y="1462"/>
      <point x="70" y="1357"/>
    </contour>
  </outline>
</glyph>
<glyph name="PilcrowSgn" format="1">
  <advance width="1025"/>
  <unicode hex="00B6"/>
  <outline>
    <contour>
      <point x="923" y="1283" type="line"/>
      <point x="923" y="1393" type="line"/>
      <point x="422" y="1393" type="line" smooth="yes"/>
      <point x="271" y="1393"/>
      <point x="50" y="1318"/>
      <point x="50" y="1062" type="curve" smooth="yes"/>
      <point x="50" y="806"/>
      <point x="272" y="730"/>
      <point x="403" y="730" type="curve"/>
      <point x="403" y="0" type="line"/>
      <point x="532" y="0" type="line"/>
      <point x="532" y="1283" type="line"/>
      <point x="684" y="1283" type="line"/>
      <point x="684" y="0" type="line"/>
      <point x="813" y="0" type="line"/>
      <point x="813" y="1283" type="line"/>
    </contour>
  </outline>
</glyph>
<glyph name="MiddleDot" format="1">
  <advance width="679"/>
  <unicode hex="00B7"/>
  <outline>
    <contour>
      <point x="205" y="703" type="curve" smooth="yes"/>
      <point x="205" y="632"/>
      <point x="262" y="575"/>
      <point x="333" y="575" type="curve" smooth="yes"/>
      <point x="403" y="575"/>
      <point x="461" y="632"/>
      <point x="461" y="703" type="curve" smooth="yes"/>
      <point x="461" y="773"/>
      <point x="403" y="831"/>
      <point x="333" y="831" type="curve" smooth="yes"/>
      <point x="262" y="831"/>
      <point x="205" y="773"/>
    </contour>
  </outline>
</glyph>
<glyph name="RtPtngDblAngQuotMrk" format="1">
  <advance width="1300"/>
  <unicode hex="00BB"/>
  <outline>
    <contour>
      <point x="756" y="0" type="line"/>
      <point x="1174" y="488" type="line"/>
      <point x="759" y="973" type="line"/>
      <point x="582" y="973" type="line"/>
      <point x="955" y="488" type="line"/>
      <point x="582" y="0" type="line"/>
    </contour>
    <contour>
      <point x="289" y="0" type="line"/>
      <point x="706" y="488" type="line"/>
      <point x="291" y="973" type="line"/>
      <point x="115" y="973" type="line"/>
      <point x="487" y="488" type="line"/>
      <point x="115" y="0" type="line"/>
    </contour>
  </outline>
</glyph>
<glyph name="VulgFracOneQuarter" format="1">
  <advance width="1600"/>
  <unicode hex="00BC"/>
  <outline>
    <contour>
      <point x="1455" y="246" type="line"/>
      <point x="1455" y="346" type="line"/>
      <point x="959" y="346" type="line"/>
      <point x="1202" y="685" type="line"/>
      <point x="1202" y="-2" type="line"/>
      <point x="1345" y="-2" type="line"/>
      <point x="1336" y="60"/>
      <point x="1331" y="196"/>
      <point x="1331" y="270" type="curve" smooth="yes"/>
      <point x="1331" y="847" type="line"/>
      <point x="1202" y="847" type="line"/>
      <point x="830" y="346" type="line"/>
      <point x="830" y="246" type="line"/>
    </contour>
    <contour>
      <point x="291" y="775" type="line"/>
      <point x="115" y="775" type="line"/>
      <point x="115" y="675" type="line"/>
      <point x="587" y="675" type="line"/>
      <point x="587" y="775" type="line"/>
      <point x="415" y="775" type="line"/>
      <point x="415" y="1524" type="line"/>
      <point x="305" y="1524" type="line"/>
      <point x="105" y="1405" type="line"/>
      <point x="124" y="1300" type="line"/>
      <point x="291" y="1400" type="line"/>
    </contour>
    <contour>
      <point x="1256" y="1524" type="line"/>
      <point x="224" y="-50" type="line"/>
      <point x="348" y="-50" type="line"/>
      <point x="1380" y="1524" type="line"/>
    </contour>
  </outline>
</glyph>
<glyph name="LtnCapARingAbv" format="1">
  <advance width="1395"/>
  <unicode hex="00C5"/>
  <outline>
    <contour>
      <point x="236" y="0" type="line"/>
      <point x="363" y="367" type="line"/>
      <point x="950" y="367" type="line"/>
      <point x="1080" y="0" type="line"/>
      <point x="1275" y="0" type="line"/>
      <point x="1242" y="76"/>
      <point x="1206" y="161"/>
      <point x="1142" y="339" type="curve" smooth="yes"/>
      <point x="760" y="1393" type="line"/>
      <point x="555" y="1393" type="line"/>
      <point x="174" y="339" type="line" smooth="yes"/>
      <point x="109" y="160"/>
      <point x="74" y="77"/>
      <point x="40" y="0" type="curve"/>
    </contour>
    <contour>
      <point x="899" y="515" type="line"/>
      <point x="415" y="515" type="line"/>
      <point x="655" y="1207" type="line"/>
    </contour>
    <contour>
      <point x="755" y="1732" type="curve" smooth="yes"/>
      <point x="755" y="1674"/>
      <point x="716" y="1636"/>
      <point x="659" y="1636" type="curve" smooth="yes"/>
      <point x="602" y="1636"/>
      <point x="564" y="1674"/>
      <point x="564" y="1732" type="curve" smooth="yes"/>
      <point x="564" y="1789"/>
      <point x="602" y="1827"/>
      <point x="659" y="1827" type="curve" smooth="yes"/>
      <point x="716" y="1827"/>
      <point x="755" y="1789"/>
    </contour>
    <contour>
      <point x="454" y="1732" type="curve" smooth="yes"/>
      <point x="454" y="1617"/>
      <point x="545" y="1526"/>
      <point x="659" y="1526" type="curve" smooth="yes"/>
      <point x="774" y="1526"/>
      <point x="864" y="1617"/>
      <point x="864" y="1732" type="curve" smooth="yes"/>
      <point x="864" y="1846"/>
      <point x="774" y="1937"/>
      <point x="659" y="1937" type="curve" smooth="yes"/>
      <point x="545" y="1937"/>
      <point x="454" y="1846"/>
    </contour>
    <contour>
      <point x="1230" y="0" type="move" name="H"/>
    </contour>
    <contour>
      <point x="687" y="-100" type="move" name="L"/>
    </contour>
    <contour>
      <point x="1450" y="0" type="move" name="O"/>
    </contour>
    <contour>
      <point x="689" y="2065" type="move" name="U"/>
    </contour>
  </outline>
</glyph>
<glyph name="LtnCapEth" format="1">
  <advance width="1435"/>
  <unicode hex="00D0"/>
  <outline>
    <contour>
      <point x="0" y="796" type="line"/>
      <point x="0" y="658" type="line"/>
      <point x="167" y="658" type="line"/>
      <point x="167" y="434" type="line" smooth="yes"/>
      <point x="167" y="245"/>
      <point x="167" y="76"/>
      <point x="153" y="0" type="curve"/>
      <point x="153" y="0"/>
      <point x="446" y="-10"/>
      <point x="568" y="-10" type="curve" smooth="yes"/>
      <point x="847" y="-10"/>
      <point x="1255" y="138"/>
      <point x="1255" y="706" type="curve" smooth="yes"/>
      <point x="1255" y="1329"/>
      <point x="791" y="1402"/>
      <point x="587" y="1402" type="curve" smooth="yes"/>
      <point x="458" y="1402"/>
      <point x="234" y="1398"/>
      <point x="153" y="1392" type="curve"/>
      <point x="167" y="1316"/>
      <point x="167" y="1141"/>
      <point x="167" y="954" type="curve" smooth="yes"/>
      <point x="167" y="796" type="line"/>
    </contour>
    <contour>
      <point x="348" y="1245" type="line"/>
      <point x="396" y="1246"/>
      <point x="500" y="1249"/>
      <point x="563" y="1249" type="curve" smooth="yes"/>
      <point x="838" y="1249"/>
      <point x="1068" y="1113"/>
      <point x="1068" y="686" type="curve" smooth="yes"/>
      <point x="1068" y="293"/>
      <point x="814" y="147"/>
      <point x="558" y="147" type="curve" smooth="yes"/>
      <point x="467" y="147"/>
      <point x="393" y="153"/>
      <point x="348" y="157" type="curve"/>
      <point x="348" y="658" type="line"/>
      <point x="711" y="658" type="line"/>
      <point x="711" y="796" type="line"/>
      <point x="348" y="796" type="line"/>
    </contour>
    <contour>
      <point x="715" y="-100" type="move" name="L"/>
    </contour>
    <contour>
      <point x="715" y="1530" type="move" name="U"/>
    </contour>
  </outline>
</glyph>
<glyph name="LtnCapOStrk" format="1">
  <advance width="1460"/>
  <unicode hex="00D8"/>
  <outline>
    <contour>
      <point x="1097" y="679" type="curve" smooth="yes"/>
      <point x="1097" y="340"/>
      <point x="925" y="140"/>
      <point x="691" y="140" type="curve" smooth="yes"/>
      <point x="443" y="140"/>
      <point x="281" y="359"/>
      <point x="281" y="707" type="curve" smooth="yes"/>
      <point x="281" y="1037"/>
      <point x="450" y="1246"/>
      <point x="691" y="1246" type="curve" smooth="yes"/>
      <point x="934" y="1246"/>
      <point x="1097" y="1031"/>
    </contour>
    <contour>
      <point x="1283" y="703" type="curve" smooth="yes"/>
      <point x="1283" y="1159"/>
      <point x="1004" y="1413"/>
      <point x="701" y="1413" type="curve" smooth="yes"/>
      <point x="393" y="1413"/>
      <point x="95" y="1140"/>
      <point x="95" y="683" type="curve" smooth="yes"/>
      <point x="95" y="226"/>
      <point x="375" y="-27"/>
      <point x="682" y="-27" type="curve" smooth="yes"/>
      <point x="986" y="-27"/>
      <point x="1283" y="245"/>
    </contour>
    <contour>
      <point x="1016" y="1456" type="line"/>
      <point x="190" y="-75" type="line"/>
      <point x="332" y="-75" type="line"/>
      <point x="1155" y="1456" type="line"/>
    </contour>
    <contour>
      <point x="717" y="-100" type="move" name="L"/>
    </contour>
    <contour>
      <point x="717" y="1530" type="move" name="U"/>
    </contour>
  </outline>
</glyph>
<glyph name="LtnSmIGrave" format="1">
  <advance width="565"/>
  <unicode hex="00EC"/>
  <outline>
    <contour>
      <point x="353" y="973" type="line"/>
      <point x="162" y="973" type="line"/>
      <point x="175" y="873"/>
      <point x="176" y="692"/>
      <point x="176" y="506" type="curve" smooth="yes"/>
      <point x="176" y="321"/>
      <point x="176" y="0"/>
      <point x="176" y="0" type="curve"/>
      <point x="372" y="0" type="line"/>
      <point x="360" y="102"/>
      <point x="353" y="330"/>
      <point x="353" y="453" type="curve" smooth="yes"/>
    </contour>
    <contour>
      <point x="-105" y="1526" type="line"/>
      <point x="296" y="1116" type="line"/>
      <point x="448" y="1116" type="line"/>
      <point x="114" y="1526" type="line"/>
    </contour>
    <contour>
      <point x="285" y="0" type="move" name="H"/>
    </contour>
    <contour>
      <point x="285" y="-100" type="move" name="L"/>
    </contour>
    <contour>
      <point x="520" y="0" type="move" name="O"/>
    </contour>
    <contour>
      <point x="550" y="1000" type="move" name="R"/>
    </contour>
    <contour>
      <point x="285" y="1635" type="move" name="U"/>
    </contour>
  </outline>
</glyph>
<glyph name="LtnSmICircum" format="1">
  <advance width="565"/>
  <unicode hex="00EE"/>
  <outline>
    <contour>
      <point x="351" y="973" type="line"/>
      <point x="161" y="973" type="line"/>
      <point x="173" y="873"/>
      <point x="175" y="692"/>
      <point x="175" y="506" type="curve" smooth="yes"/>
      <point x="175" y="321"/>
      <point x="175" y="0"/>
      <point x="175" y="0" type="curve"/>
      <point x="370" y="0" type="line"/>
      <point x="358" y="102"/>
      <point x="351" y="330"/>
      <point x="351" y="453" type="curve" smooth="yes"/>
    </contour>
    <contour>
      <point x="3" y="1116" type="line"/>
      <point x="265" y="1383" type="line"/>
      <point x="528" y="1116" type="line"/>
      <point x="671" y="1116" type="line"/>
      <point x="347" y="1526" type="line"/>
      <point x="184" y="1526" type="line"/>
      <point x="-140" y="1116" type="line"/>
    </contour>
    <contour>
      <point x="285" y="0" type="move" name="H"/>
    </contour>
    <contour>
      <point x="285" y="-100" type="move" name="L"/>
    </contour>
    <contour>
      <point x="520" y="0" type="move" name="O"/>
    </contour>
    <contour>
      <point x="550" y="1000" type="move" name="R"/>
    </contour>
    <contour>
      <point x="285" y="1635" type="move" name="U"/>
    </contour>
  </outline>
</glyph>
<glyph name="LtnSmIDiaer" format="1">
  <advance width="565"/>
  <unicode hex="00EF"/>
  <outline>
    <contour>
      <point x="355" y="973" type="line"/>
      <point x="164" y="973" type="line"/>
      <point x="177" y="873"/>
      <point x="179" y="692"/>
      <point x="179" y="506" type="curve" smooth="yes"/>
      <point x="179" y="321"/>
      <point x="179" y="0"/>
      <point x="179" y="0" type="curve"/>
      <point x="374" y="0" type="line"/>
      <point x="362" y="102"/>
      <point x="355" y="330"/>
      <point x="355" y="453" type="curve" smooth="yes"/>
    </contour>
    <contour>
      <point x="346" y="1283" type="curve" smooth="yes"/>
      <point x="346" y="1213"/>
      <point x="399" y="1154"/>
      <point x="470" y="1154" type="curve" smooth="yes"/>
      <point x="541" y="1154"/>
      <point x="594" y="1213"/>
      <point x="594" y="1283" type="curve" smooth="yes"/>
      <point x="594" y="1354"/>
      <point x="541" y="1412"/>
      <point x="470" y="1412" type="curve" smooth="yes"/>
      <point x="399" y="1412"/>
      <point x="346" y="1354"/>
    </contour>
    <contour>
      <point x="-55" y="1283" type="curve" smooth="yes"/>
      <point x="-55" y="1213"/>
      <point x="-2" y="1154"/>
      <point x="69" y="1154" type="curve" smooth="yes"/>
      <point x="141" y="1154"/>
      <point x="193" y="1213"/>
      <point x="193" y="1283" type="curve" smooth="yes"/>
      <point x="193" y="1354"/>
      <point x="141" y="1412"/>
      <point x="69" y="1412" type="curve" smooth="yes"/>
      <point x="-2" y="1412"/>
      <point x="-55" y="1354"/>
    </contour>
    <contour>
      <point x="285" y="0" type="move" name="H"/>
    </contour>
    <contour>
      <point x="285" y="-100" type="move" name="L"/>
    </contour>
    <contour>
      <point x="520" y="0" type="move" name="O"/>
    </contour>
    <contour>
      <point x="550" y="1000" type="move" name="R"/>
    </contour>
    <contour>
      <point x="285" y="1505" type="move" name="U"/>
    </contour>
  </outline>
</glyph>
<glyph name="LtnSmOStrk" format="1">
  <advance width="1140"/>
  <unicode hex="00F8"/>
  <outline>
    <contour>
      <point x="95" y="480" type="curve" smooth="yes"/>
      <point x="95" y="152"/>
      <point x="277" y="-27"/>
      <point x="539" y="-27" type="curve" smooth="yes"/>
      <point x="790" y="-27"/>
      <point x="1001" y="152"/>
      <point x="1001" y="480" type="curve" smooth="yes"/>
      <point x="1001" y="808"/>
      <point x="820" y="989"/>
      <point x="558" y="989" type="curve" smooth="yes"/>
      <point x="307" y="989"/>
      <point x="95" y="808"/>
    </contour>
    <contour>
      <point x="271" y="480" type="curve" smooth="yes"/>
      <point x="271" y="703"/>
      <point x="394" y="836"/>
      <point x="548" y="836" type="curve" smooth="yes"/>
      <point x="712" y="836"/>
      <point x="825" y="703"/>
      <point x="825" y="480" type="curve" smooth="yes"/>
      <point x="825" y="258"/>
      <point x="702" y="125"/>
      <point x="548" y="125" type="curve" smooth="yes"/>
      <point x="384" y="125"/>
      <point x="271" y="258"/>
    </contour>
    <contour>
      <point x="769" y="1051" type="line"/>
      <point x="162" y="-75" type="line"/>
      <point x="303" y="-75" type="line"/>
      <point x="909" y="1051" type="line"/>
    </contour>
    <contour>
      <point x="570" y="0" type="move" name="H"/>
    </contour>
    <contour>
      <point x="570" y="-100" type="move" name="L"/>
    </contour>
    <contour>
      <point x="820" y="0" type="move" name="O"/>
    </contour>
    <contour>
      <point x="1140" y="1000" type="move" name="R"/>
    </contour>
    <contour>
      <point x="570" y="1100" type="move" name="U"/>
    </contour>
  </outline>
</glyph>
<glyph name="LtnSmABreve" format="1">
  <advance width="1150"/>
  <unicode hex="0103"/>
  <outline>
    <contour>
      <point x="1011" y="-1" type="line"/>
      <point x="974" y="106"/>
      <point x="949" y="264"/>
      <point x="949" y="504" type="curve" smooth="yes"/>
      <point x="949" y="948" type="line"/>
      <point x="853" y="973"/>
      <point x="743" y="991"/>
      <point x="620" y="991" type="curve" smooth="yes"/>
      <point x="263" y="991"/>
      <point x="105" y="693"/>
      <point x="105" y="390" type="curve" smooth="yes"/>
      <point x="105" y="120"/>
      <point x="231" y="-25"/>
      <point x="391" y="-25" type="curve" smooth="yes"/>
      <point x="591" y="-25"/>
      <point x="726" y="193"/>
      <point x="801" y="390" type="curve"/>
      <point x="801" y="314" type="line" smooth="yes"/>
      <point x="801" y="230"/>
      <point x="817" y="59"/>
      <point x="844" y="-1" type="curve"/>
    </contour>
    <contour>
      <point x="773" y="700" type="line"/>
      <point x="773" y="565"/>
      <point x="588" y="137"/>
      <point x="420" y="137" type="curve" smooth="yes"/>
      <point x="344" y="137"/>
      <point x="281" y="242"/>
      <point x="281" y="390" type="curve" smooth="yes"/>
      <point x="281" y="620"/>
      <point x="357" y="838"/>
      <point x="606" y="838" type="curve" smooth="yes"/>
      <point x="701" y="838"/>
      <point x="741" y="828"/>
      <point x="773" y="821" type="curve"/>
    </contour>
    <contour>
      <point x="930" y="1478" type="curve"/>
      <point x="814" y="1478" type="line"/>
      <point x="795" y="1349"/>
      <point x="697" y="1239"/>
      <point x="572" y="1239" type="curve" smooth="yes"/>
      <point x="448" y="1239"/>
      <point x="344" y="1349"/>
      <point x="329" y="1478" type="curve"/>
      <point x="215" y="1478" type="line"/>
      <point x="215" y="1292"/>
      <point x="348" y="1096"/>
      <point x="572" y="1096" type="curve" smooth="yes"/>
      <point x="795" y="1096"/>
      <point x="930" y="1292"/>
    </contour>
    <contour>
      <point x="980" y="0" type="move" name="H"/>
    </contour>
    <contour>
      <point x="595" y="-100" type="move" name="L"/>
    </contour>
    <contour>
      <point x="1180" y="0" type="move" name="O"/>
    </contour>
    <contour>
      <point x="1150" y="1000" type="move" name="R"/>
    </contour>
    <contour>
      <point x="595" y="1635" type="move" name="U"/>
    </contour>
  </outline>
</glyph>
<glyph name="LtnSmIBreve" format="1">
  <advance width="565"/>
  <unicode hex="012D"/>
  <outline>
    <contour>
      <point x="354" y="973" type="line"/>
      <point x="163" y="973" type="line"/>
      <point x="175" y="873"/>
      <point x="177" y="692"/>
      <point x="177" y="506" type="curve" smooth="yes"/>
      <point x="177" y="321"/>
      <point x="177" y="0"/>
      <point x="177" y="0" type="curve"/>
      <point x="373" y="0" type="line"/>
      <point x="360" y="102"/>
      <point x="354" y="330"/>
      <point x="354" y="453" type="curve" smooth="yes"/>
    </contour>
    <contour>
      <point x="626" y="1479" type="curve"/>
      <point x="509" y="1479" type="line"/>
      <point x="490" y="1350"/>
      <point x="393" y="1240"/>
      <point x="268" y="1240" type="curve" smooth="yes"/>
      <point x="144" y="1240"/>
      <point x="40" y="1350"/>
      <point x="24" y="1479" type="curve"/>
      <point x="-90" y="1479" type="line"/>
      <point x="-90" y="1294"/>
      <point x="44" y="1097"/>
      <point x="268" y="1097" type="curve" smooth="yes"/>
      <point x="490" y="1097"/>
      <point x="626" y="1294"/>
    </contour>
    <contour>
      <point x="285" y="0" type="move" name="H"/>
    </contour>
    <contour>
      <point x="285" y="-100" type="move" name="L"/>
    </contour>
    <contour>
      <point x="520" y="0" type="move" name="O"/>
    </contour>
    <contour>
      <point x="550" y="1000" type="move" name="R"/>
    </contour>
    <contour>
      <point x="285" y="1635" type="move" name="U"/>
    </contour>
  </outline>
</glyph>
<glyph name="LtnSmEng" format="1">
  <advance width="1185"/>
  <unicode hex="014B"/>
  <outline>
    <contour>
      <point x="105" y="951" type="line"/>
      <point x="125" y="886"/>
      <point x="153" y="752"/>
      <point x="153" y="565" type="curve" smooth="yes"/>
      <point x="153" y="-22" type="line"/>
      <point x="329" y="-22" type="line"/>
      <point x="329" y="532" type="line"/>
      <point x="371" y="661"/>
      <point x="502" y="804"/>
      <point x="639" y="804" type="curve" smooth="yes"/>
      <point x="767" y="804"/>
      <point x="830" y="747"/>
      <point x="830" y="441" type="curve" smooth="yes"/>
      <point x="830" y="21" type="line" smooth="yes"/>
      <point x="830" y="-246"/>
      <point x="756" y="-313"/>
      <point x="634" y="-313" type="curve" smooth="yes"/>
      <point x="584" y="-313"/>
      <point x="530" y="-296"/>
      <point x="501" y="-274" type="curve"/>
      <point x="439" y="-418" type="line"/>
      <point x="491" y="-450"/>
      <point x="563" y="-470"/>
      <point x="620" y="-470" type="curve" smooth="yes"/>
      <point x="851" y="-470"/>
      <point x="1006" y="-346"/>
      <point x="1007" y="83" type="curve" smooth="yes"/>
      <point x="1007" y="513" type="line" smooth="yes"/>
      <point x="1007" y="842"/>
      <point x="895" y="971"/>
      <point x="692" y="971" type="curve" smooth="yes"/>
      <point x="558" y="971"/>
      <point x="437" y="910"/>
      <point x="315" y="765" type="curve"/>
      <point x="308" y="811"/>
      <point x="291" y="911"/>
      <point x="277" y="951" type="curve"/>
    </contour>
    <contour>
      <point x="605" y="-500" type="move" name="L"/>
    </contour>
    <contour>
      <point x="605" y="1100" type="move" name="U"/>
    </contour>
  </outline>
</glyph>
<glyph name="LtnSmSCaron" format="1">
  <advance width="965"/>
  <unicode hex="0161"/>
  <outline>
    <contour>
      <point x="800" y="915" type="line"/>
      <point x="734" y="951"/>
      <point x="633" y="991"/>
      <point x="495" y="991" type="curve" smooth="yes"/>
      <point x="205" y="991"/>
      <point x="127" y="793"/>
      <point x="127" y="705" type="curve" smooth="yes"/>
      <point x="127" y="587"/>
      <point x="177" y="489"/>
      <point x="409" y="433" type="curve" smooth="yes"/>
      <point x="622" y="380"/>
      <point x="671" y="328"/>
      <point x="671" y="256" type="curve" smooth="yes"/>
      <point x="671" y="191"/>
      <point x="592" y="128"/>
      <point x="480" y="128" type="curve" smooth="yes"/>
      <point x="379" y="128"/>
      <point x="242" y="179"/>
      <point x="156" y="256" type="curve"/>
      <point x="108" y="85" type="line"/>
      <point x="184" y="26"/>
      <point x="321" y="-25"/>
      <point x="475" y="-25" type="curve" smooth="yes"/>
      <point x="681" y="-25"/>
      <point x="843" y="109"/>
      <point x="843" y="280" type="curve" smooth="yes"/>
      <point x="843" y="458"/>
      <point x="701" y="532"/>
      <point x="528" y="571" type="curve" smooth="yes"/>
      <point x="328" y="617"/>
      <point x="299" y="648"/>
      <point x="299" y="714" type="curve" smooth="yes"/>
      <point x="299" y="772"/>
      <point x="345" y="838"/>
      <point x="485" y="838" type="curve" smooth="yes"/>
      <point x="603" y="838"/>
      <point x="703" y="785"/>
      <point x="766" y="748" type="curve"/>
    </contour>
    <contour>
      <point x="70" y="1525" type="line"/>
      <point x="394" y="1115" type="line"/>
      <point x="557" y="1115" type="line"/>
      <point x="881" y="1525" type="line"/>
      <point x="738" y="1525" type="line"/>
      <point x="475" y="1258" type="line"/>
      <point x="213" y="1525" type="line"/>
    </contour>
    <contour>
      <point x="495" y="0" type="move" name="H"/>
    </contour>
    <contour>
      <point x="495" y="-100" type="move" name="L"/>
    </contour>
    <contour>
      <point x="495" y="1635" type="move" name="U"/>
    </contour>
  </outline>
</glyph>
<glyph name="LtnSmZCaron" format="1">
  <advance width="1040"/>
  <unicode hex="017E"/>
  <outline>
    <contour>
      <point x="133" y="973" type="line"/>
      <point x="133" y="816" type="line"/>
      <point x="169" y="830"/>
      <point x="225" y="830"/>
      <point x="281" y="830" type="curve" smooth="yes"/>
      <point x="653" y="830" type="line"/>
      <point x="105" y="105" type="line"/>
      <point x="105" y="0" type="line"/>
      <point x="906" y="0" type="line"/>
      <point x="906" y="157" type="line"/>
      <point x="849" y="143"/>
      <point x="790" y="143"/>
      <point x="734" y="143" type="curve" smooth="yes"/>
      <point x="324" y="143" type="line"/>
      <point x="892" y="882" type="line"/>
      <point x="892" y="973" type="line"/>
    </contour>
    <contour>
      <point x="100" y="1526" type="line"/>
      <point x="424" y="1116" type="line"/>
      <point x="587" y="1116" type="line"/>
      <point x="911" y="1526" type="line"/>
      <point x="768" y="1526" type="line"/>
      <point x="505" y="1259" type="line"/>
      <point x="243" y="1526" type="line"/>
    </contour>
    <contour>
      <point x="525" y="0" type="move" name="H"/>
    </contour>
    <contour>
      <point x="525" y="-100" type="move" name="L"/>
    </contour>
    <contour>
      <point x="525" y="1635" type="move" name="U"/>
    </contour>
  </outline>
</glyph>
<glyph name="LtnSmTurnedE" format="1">
  <advance width="1078"/>
  <unicode hex="01DD"/>
  <outline>
    <contour>
      <point x="127" y="711" type="line"/>
      <point x="232" y="789"/>
      <point x="337" y="830"/>
      <point x="460" y="830" type="curve" smooth="yes"/>
      <point x="637" y="830"/>
      <point x="768" y="706"/>
      <point x="768" y="490" type="curve" smooth="yes"/>
      <point x="768" y="258"/>
      <point x="703" y="111"/>
      <point x="505" y="111" type="curve" smooth="yes"/>
      <point x="356" y="111"/>
      <point x="276" y="204"/>
      <point x="276" y="368" type="curve"/>
      <point x="800" y="368" type="line"/>
      <point x="800" y="502" type="line"/>
      <point x="101" y="502" type="line"/>
      <point x="100" y="483"/>
      <point x="100" y="446"/>
      <point x="100" y="428" type="curve" smooth="yes"/>
      <point x="100" y="202"/>
      <point x="177" y="-27"/>
      <point x="492" y="-27" type="curve" smooth="yes"/>
      <point x="795" y="-27"/>
      <point x="942" y="188"/>
      <point x="942" y="503" type="curve" smooth="yes"/>
      <point x="942" y="818"/>
      <point x="728" y="988"/>
      <point x="484" y="988" type="curve" smooth="yes"/>
      <point x="339" y="988"/>
      <point x="237" y="947"/>
      <point x="108" y="869" type="curve"/>
    </contour>
    <contour>
      <point x="541" y="0" type="move" name="H"/>
    </contour>
    <contour>
      <point x="541" y="-100" type="move" name="L"/>
    </contour>
    <contour>
      <point x="598" y="0" type="move" name="O"/>
    </contour>
    <contour>
      <point x="541" y="1100" type="move" name="U"/>
    </contour>
  </outline>
</glyph>
<glyph name="LtnSmGamma" format="1">
  <advance width="1170"/>
  <unicode hex="0263"/>
  <outline>
    <contour>
      <point x="898" y="951" type="line"/>
      <point x="898" y="951"/>
      <point x="668" y="521"/>
      <point x="521" y="264" type="curve" smooth="yes"/>
      <point x="405" y="61"/>
      <point x="277" y="-108"/>
      <point x="277" y="-232" type="curve" smooth="yes"/>
      <point x="277" y="-385"/>
      <point x="417" y="-490"/>
      <point x="559" y="-490" type="curve" smooth="yes"/>
      <point x="694" y="-490"/>
      <point x="846" y="-385"/>
      <point x="846" y="-232" type="curve" smooth="yes"/>
      <point x="846" y="-108"/>
      <point x="729" y="27"/>
      <point x="597" y="264" type="curve" smooth="yes"/>
      <point x="486" y="464"/>
      <point x="294" y="811"/>
      <point x="220" y="951" type="curve"/>
      <point x="20" y="951" type="line"/>
      <point x="77" y="841"/>
      <point x="165" y="688"/>
      <point x="206" y="612" type="curve" smooth="yes"/>
      <point x="252" y="529"/>
      <point x="346" y="357"/>
      <point x="445" y="197" type="curve" smooth="yes"/>
      <point x="558" y="12"/>
      <point x="678" y="-134"/>
      <point x="678" y="-223" type="curve" smooth="yes"/>
      <point x="678" y="-299"/>
      <point x="624" y="-352"/>
      <point x="559" y="-352" type="curve" smooth="yes"/>
      <point x="502" y="-352"/>
      <point x="440" y="-299"/>
      <point x="440" y="-223" type="curve" smooth="yes"/>
      <point x="440" y="-134"/>
      <point x="556" y="15"/>
      <point x="664" y="192" type="curve" smooth="yes"/>
      <point x="763" y="355"/>
      <point x="861" y="523"/>
      <point x="912" y="612" type="curve" smooth="yes"/>
      <point x="954" y="685"/>
      <point x="1039" y="841"/>
      <point x="1098" y="951" type="curve"/>
    </contour>
    <contour>
      <point x="585" y="-500" type="move" name="L"/>
    </contour>
    <contour>
      <point x="585" y="1100" type="move" name="U"/>
    </contour>
  </outline>
</glyph>
<glyph name="SmTilde" format="1">
  <advance width="710"/>
  <unicode hex="02DC"/>
  <outline>
    <contour>
      <point x="100" y="1204" type="line"/>
      <point x="105" y="1251"/>
      <point x="135" y="1285"/>
      <point x="181" y="1285" type="curve" smooth="yes"/>
      <point x="217" y="1285"/>
      <point x="256" y="1270"/>
      <point x="329" y="1236" type="curve" smooth="yes"/>
      <point x="387" y="1209"/>
      <point x="438" y="1190"/>
      <point x="488" y="1190" type="curve" smooth="yes"/>
      <point x="606" y="1190"/>
      <point x="677" y="1306"/>
      <point x="677" y="1429" type="curve"/>
      <point x="577" y="1429" type="line"/>
      <point x="570" y="1385"/>
      <point x="541" y="1347"/>
      <point x="496" y="1347" type="curve" smooth="yes"/>
      <point x="456" y="1347"/>
      <point x="417" y="1366"/>
      <point x="348" y="1393" type="curve" smooth="yes"/>
      <point x="281" y="1420"/>
      <point x="237" y="1443"/>
      <point x="183" y="1443" type="curve" smooth="yes"/>
      <point x="70" y="1443"/>
      <point x="0" y="1321"/>
      <point x="0" y="1204" type="curve"/>
    </contour>
  </outline>
</glyph>
<glyph name="CombOverline" format="1">
  <advance width="0"/>
  <unicode hex="0305"/>
  <outline>
    <contour>
      <point x="-945" y="1240" type="line"/>
      <point x="-229" y="1240" type="line"/>
      <point x="-229" y="1383" type="line"/>
      <point x="-945" y="1383" type="line"/>
    </contour>
    <contour>
      <point x="-570" y="1450" type="move" name="U"/>
    </contour>
    <contour>
      <point x="-570" y="1100" type="move" name="_U"/>
    </contour>
  </outline>
</glyph>
<glyph name="CombDotAbv" format="1">
  <advance width="0"/>
  <unicode hex="0307"/>
  <outline>
    <contour>
      <point x="-705" y="1345" type="curve" smooth="yes"/>
      <point x="-705" y="1271"/>
      <point x="-644" y="1210"/>
      <point x="-570" y="1210" type="curve" smooth="yes"/>
      <point x="-496" y="1210"/>
      <point x="-435" y="1271"/>
      <point x="-435" y="1345" type="curve" smooth="yes"/>
      <point x="-435" y="1419"/>
      <point x="-496" y="1480"/>
      <point x="-570" y="1480" type="curve" smooth="yes"/>
      <point x="-644" y="1480"/>
      <point x="-705" y="1419"/>
    </contour>
    <contour>
      <point x="-570" y="1505" type="move" name="U"/>
    </contour>
    <contour>
      <point x="-570" y="1100" type="move" name="_U"/>
    </contour>
  </outline>
</glyph>
<glyph name="CombDiaer" format="1">
  <advance width="0"/>
  <unicode hex="0308"/>
  <outline>
    <contour>
      <point x="-509" y="1339" type="curve" smooth="yes"/>
      <point x="-509" y="1268"/>
      <point x="-456" y="1210"/>
      <point x="-385" y="1210" type="curve" smooth="yes"/>
      <point x="-314" y="1210"/>
      <point x="-261" y="1268"/>
      <point x="-261" y="1339" type="curve" smooth="yes"/>
      <point x="-261" y="1409"/>
      <point x="-314" y="1468"/>
      <point x="-385" y="1468" type="curve" smooth="yes"/>
      <point x="-456" y="1468"/>
      <point x="-509" y="1409"/>
    </contour>
    <contour>
      <point x="-910" y="1339" type="curve" smooth="yes"/>
      <point x="-910" y="1268"/>
      <point x="-857" y="1210"/>
      <point x="-786" y="1210" type="curve" smooth="yes"/>
      <point x="-714" y="1210"/>
      <point x="-662" y="1268"/>
      <point x="-662" y="1339" type="curve" smooth="yes"/>
      <point x="-662" y="1409"/>
      <point x="-714" y="1468"/>
      <point x="-786" y="1468" type="curve" smooth="yes"/>
      <point x="-857" y="1468"/>
      <point x="-910" y="1409"/>
    </contour>
    <contour>
      <point x="-570" y="1505" type="move" name="U"/>
    </contour>
    <contour>
      <point x="-570" y="1100" type="move" name="_U"/>
    </contour>
  </outline>
</glyph>
<glyph name="haceknosp" format="1">
  <advance width="0"/>
  <unicode hex="030C"/>
  <outline>
    <contour>
      <point x="-995" y="1580" type="line"/>
      <point x="-671" y="1170" type="line"/>
      <point x="-508" y="1170" type="line"/>
      <point x="-184" y="1580" type="line"/>
      <point x="-327" y="1580" type="line"/>
      <point x="-590" y="1313" type="line"/>
      <point x="-852" y="1580" type="line"/>
    </contour>
    <contour>
      <point x="-570" y="1635" type="move" name="U"/>
    </contour>
    <contour>
      <point x="-570" y="1100" type="move" name="_U"/>
    </contour>
  </outline>
</glyph>
<glyph name="CombDotBlw" format="1">
  <advance width="1"/>
  <unicode hex="0323"/>
  <outline>
    <contour>
      <point x="-705" y="-316" type="curve" smooth="yes"/>
      <point x="-705" y="-387"/>
      <point x="-647" y="-445"/>
      <point x="-576" y="-445" type="curve" smooth="yes"/>
      <point x="-506" y="-445"/>
      <point x="-447" y="-387"/>
      <point x="-447" y="-316" type="curve" smooth="yes"/>
      <point x="-447" y="-246"/>
      <point x="-506" y="-187"/>
      <point x="-576" y="-187" type="curve" smooth="yes"/>
      <point x="-647" y="-187"/>
      <point x="-705" y="-246"/>
    </contour>
    <contour>
      <point x="-575" y="-500" type="move" name="L"/>
    </contour>
    <contour>
      <point x="-575" y="-100" type="move" name="_L"/>
    </contour>
  </outline>
</glyph>
<glyph name="SglLow9QuotMrk" format="1">
  <advance width="760"/>
  <unicode hex="201A"/>
  <outline>
    <contour>
      <point x="265" y="35" type="line"/>
      <point x="399" y="35" type="line"/>
      <point x="399" y="-61"/>
      <point x="325" y="-177"/>
      <point x="270" y="-232" type="curve"/>
      <point x="365" y="-270" type="line"/>
      <point x="477" y="-165"/>
      <point x="532" y="-48"/>
      <point x="532" y="69" type="curve" smooth="yes"/>
      <point x="532" y="165"/>
      <point x="470" y="226"/>
      <point x="394" y="226" type="curve" smooth="yes"/>
      <point x="339" y="226"/>
      <point x="277" y="191"/>
      <point x="265" y="131" type="curve"/>
    </contour>
  </outline>
</glyph>
<glyph name="LftDblQuotMrk" format="1">
  <advance width="1050"/>
  <unicode hex="201C"/>
  <outline>
    <contour>
      <point x="882" y="1256" type="line"/>
      <point x="749" y="1256" type="line"/>
      <point x="749" y="1352"/>
      <point x="822" y="1468"/>
      <point x="878" y="1523" type="curve"/>
      <point x="782" y="1561" type="line"/>
      <point x="671" y="1456"/>
      <point x="615" y="1339"/>
      <point x="615" y="1222" type="curve" smooth="yes"/>
      <point x="615" y="1126"/>
      <point x="677" y="1065"/>
      <point x="754" y="1065" type="curve" smooth="yes"/>
      <point x="808" y="1065"/>
      <point x="870" y="1100"/>
      <point x="882" y="1160" type="curve"/>
    </contour>
    <contour>
      <point x="472" y="1256" type="line"/>
      <point x="339" y="1256" type="line"/>
      <point x="339" y="1352"/>
      <point x="412" y="1468"/>
      <point x="467" y="1523" type="curve"/>
      <point x="372" y="1561" type="line"/>
      <point x="260" y="1456"/>
      <point x="205" y="1339"/>
      <point x="205" y="1222" type="curve" smooth="yes"/>
      <point x="205" y="1126"/>
      <point x="267" y="1065"/>
      <point x="343" y="1065" type="curve" smooth="yes"/>
      <point x="398" y="1065"/>
      <point x="460" y="1100"/>
      <point x="472" y="1160" type="curve"/>
    </contour>
  </outline>
</glyph>
<glyph name="RtDblQuotMrk" format="1">
  <advance width="1010"/>
  <unicode hex="201D"/>
  <outline>
    <contour>
      <point x="205" y="1370" type="line"/>
      <point x="339" y="1370" type="line"/>
      <point x="339" y="1274"/>
      <point x="265" y="1158"/>
      <point x="210" y="1103" type="curve"/>
      <point x="305" y="1065" type="line"/>
      <point x="417" y="1170"/>
      <point x="472" y="1287"/>
      <point x="472" y="1404" type="curve" smooth="yes"/>
      <point x="472" y="1500"/>
      <point x="410" y="1561"/>
      <point x="334" y="1561" type="curve" smooth="yes"/>
      <point x="279" y="1561"/>
      <point x="217" y="1526"/>
      <point x="205" y="1466" type="curve"/>
    </contour>
    <contour>
      <point x="615" y="1370" type="line"/>
      <point x="749" y="1370" type="line"/>
      <point x="749" y="1274"/>
      <point x="675" y="1158"/>
      <point x="620" y="1103" type="curve"/>
      <point x="715" y="1065" type="line"/>
      <point x="827" y="1170"/>
      <point x="882" y="1287"/>
      <point x="882" y="1404" type="curve" smooth="yes"/>
      <point x="882" y="1500"/>
      <point x="820" y="1561"/>
      <point x="744" y="1561" type="curve" smooth="yes"/>
      <point x="690" y="1561"/>
      <point x="628" y="1526"/>
      <point x="615" y="1466" type="curve"/>
    </contour>
  </outline>
</glyph>
<glyph name="SglLftPtngAngQuotMrk" format="1">
  <advance width="790"/>
  <unicode hex="2039"/>
  <outline>
    <contour>
      <point x="647" y="0" type="line"/>
      <point x="294" y="487" type="line"/>
      <point x="647" y="973" type="line"/>
      <point x="490" y="973" type="line"/>
      <point x="75" y="487" type="line"/>
      <point x="490" y="0" type="line"/>
    </contour>
  </outline>
</glyph>
<glyph name="TifLtrYab" format="1">
  <advance width="1438"/>
  <unicode hex="2D31"/>
  <outline>
    <component base="_VerticalOval" xOffset="-21"/>
    <component base="_HorizontalBar" xOffset="-24"/>
    <contour>
      <point x="720" y="1393" type="move" name="T"/>
    </contour>
  </outline>
</glyph>
<glyph name="TifLtrYaj" format="1">
  <advance width="978"/>
  <unicode hex="2D36"/>
  <outline>
    <component base="_VerticalBarShortForTopDots" xOffset="-257"/>
    <component base="_Dot" xOffset="-425" yOffset="595"/>
    <component base="_Dot" xOffset="87" yOffset="595"/>
    <contour>
      <point x="499" y="1393" type="move" name="T"/>
    </contour>
  </outline>
</glyph>
<glyph name="TifLtrYad" format="1">
  <advance width="1322"/>
  <unicode hex="2D37"/>
  <outline>
    <contour>
      <point x="720" y="1405" type="curve" smooth="yes"/>
      <point x="670" y="1405"/>
      <point x="628" y="1363"/>
      <point x="610" y="1339" type="curve" smooth="yes"/>
      <point x="350" y="984"/>
      <point x="100" y="237"/>
      <point x="100" y="12" type="curve" smooth="yes"/>
      <point x="100" y="-12"/>
      <point x="117" y="-30"/>
      <point x="146" y="-30" type="curve" smooth="yes"/>
      <point x="175" y="-30"/>
      <point x="263" y="-1"/>
      <point x="270" y="46" type="curve" smooth="yes"/>
      <point x="319" y="401"/>
      <point x="467" y="819"/>
      <point x="669" y="1174" type="curve"/>
      <point x="833" y="891"/>
      <point x="983" y="267"/>
      <point x="1017" y="74" type="curve" smooth="yes"/>
      <point x="1030" y="0"/>
      <point x="1084" y="-19"/>
      <point x="1112" y="-19" type="curve" smooth="yes"/>
      <point x="1139" y="-19"/>
      <point x="1222" y="-5"/>
      <point x="1222" y="56" type="curve" smooth="yes"/>
      <point x="1222" y="77"/>
      <point x="1198" y="87"/>
      <point x="1184" y="149" type="curve" smooth="yes"/>
      <point x="1062" y="683"/>
      <point x="972" y="981"/>
      <point x="805" y="1307" type="curve" smooth="yes"/>
      <point x="767" y="1381"/>
      <point x="754" y="1405"/>
    </contour>
    <contour>
      <point x="699" y="1393" type="move" name="T"/>
    </contour>
  </outline>
</glyph>
<glyph name="TifLtrYadd" format="1">
  <advance width="1258"/>
  <unicode hex="2D39"/>
  <outline>
    <component base="TifLtrYam"/>
    <component base="_HorizontalBarMedShort1.5" xOffset="298" yOffset="614"/>
    <contour>
      <point x="653" y="1393" type="move" name="T"/>
    </contour>
  </outline>
</glyph>
<glyph name="TifLtrTuarYak" format="1">
  <advance width="1186"/>
  <unicode hex="2D3E"/>
  <outline>
    <component base="_Dot" xOffset="-320" yOffset="269"/>
    <component base="_Dot" xOffset="-320" yOffset="-291"/>
    <component base="_Dot" xOffset="180" yOffset="-11"/>
    <contour>
      <point x="578" y="1100" type="move" name="T"/>
    </contour>
  </outline>
</glyph>
<glyph name="TifLtrTuarYab" format="1">
  <advance width="1438"/>
  <unicode hex="2D40"/>
  <outline>
    <component base="_VerticalOval" xOffset="-24"/>
    <component base="_VerticalBarJoining" xOffset="-23"/>
    <contour>
      <point x="720" y="1393" type="move" name="T"/>
    </contour>
  </outline>
</glyph>
<glyph name="TifLtrTuarYah" format="1">
  <advance width="686"/>
  <unicode hex="2D42"/>
  <outline>
    <component base="_Dot" xOffset="-320" yOffset="626"/>
    <component base="_Dot" xOffset="-320" yOffset="204"/>
    <component base="_Dot" xOffset="-320" yOffset="-229"/>
    <component base="_Dot" xOffset="-320" yOffset="-652"/>
    <contour>
      <point x="344" y="1458" type="move" name="T"/>
    </contour>
  </outline>
</glyph>
<glyph name="TifLtrTuarYakh" format="1">
  <advance width="1286"/>
  <unicode hex="2D46"/>
  <outline>
    <component base="_Dot" xOffset="-320" yOffset="340"/>
    <component base="_Dot" xOffset="-320" yOffset="-360"/>
    <component base="_Dot" xOffset="280" yOffset="340"/>
    <component base="_Dot" xOffset="280" yOffset="-360"/>
    <contour>
      <point x="661" y="1171" type="move" name="T"/>
    </contour>
  </outline>
</glyph>
<glyph name="TifLtrTuarYaq" format="1">
  <advance width="1510"/>
  <unicode hex="2D48"/>
  <outline>
    <component base="_Dot" xOffset="-320" yOffset="-11"/>
    <component base="_Dot" xOffset="92" yOffset="-11"/>
    <component base="_Dot" xOffset="504" yOffset="-11"/>
    <contour>
      <point x="758" y="820" type="move" name="T"/>
    </contour>
  </outline>
</glyph>
<glyph name="TifLtrYal" format="1">
  <advance width="929"/>
  <unicode hex="2D4D"/>
  <outline>
    <component base="_VerticalBar" xOffset="-106"/>
    <component base="_VerticalBar" xOffset="-450"/>
    <contour>
      <point x="479" y="1393" type="move" name="T"/>
    </contour>
  </outline>
</glyph>
<glyph name="TifLtrYan" format="1">
  <advance width="585"/>
  <unicode hex="2D4F"/>
  <outline>
    <component base="_VerticalBar" xOffset="-450"/>
    <contour>
      <point x="297" y="1393" type="move" name="T"/>
    </contour>
  </outline>
</glyph>
<glyph name="TifLtrTuarYagn" format="1">
  <advance width="1193"/>
  <unicode hex="2D50"/>
  <outline>
    <component base="_VerticalBar" xOffset="-140"/>
    <component base="_HorizontalBarMed" xOffset="100" yOffset="970"/>
    <component base="_HorizontalBarMed" xOffset="100" yOffset="675"/>
    <contour>
      <point x="601" y="1393" type="move" name="T"/>
    </contour>
  </outline>
</glyph>
<glyph name="TifLtrTuarYang" format="1">
  <advance width="588"/>
  <unicode hex="2D51"/>
  <outline>
    <component base="_VerticalBar" xOffset="-447"/>
    <component base="_Dot" xOffset="-375" yOffset="-900"/>
    <contour>
      <point x="297" y="1393" type="move" name="T"/>
    </contour>
  </outline>
</glyph>
<glyph name="TifLtrTuarYaw" format="1">
  <advance width="686"/>
  <unicode hex="2D53"/>
  <outline>
    <component base="_Dot" xOffset="-320" yOffset="195"/>
    <component base="_Dot" xOffset="-320" yOffset="-217"/>
    <contour>
      <point x="345" y="1027" type="move" name="T"/>
    </contour>
  </outline>
</glyph>
<glyph name="TifLtrYar" format="1">
  <advance width="1438"/>
  <unicode hex="2D54"/>
  <outline>
    <component base="_VerticalOval" xOffset="-24"/>
    <contour>
      <point x="718" y="1393" type="move" name="T"/>
    </contour>
  </outline>
</glyph>
<glyph name="TifLtrTuarYagh" format="1">
  <advance width="686"/>
  <unicode hex="2D57"/>
  <outline>
    <component base="_Dot" xOffset="-320" yOffset="402"/>
    <component base="_Dot" xOffset="-320" yOffset="-11"/>
    <component base="_Dot" xOffset="-320" yOffset="-424"/>
    <contour>
      <point x="345" y="1233" type="move" name="T"/>
    </contour>
  </outline>
</glyph>
<glyph name="TifLtrYas" format="1">
  <advance width="1438"/>
  <unicode hex="2D59"/>
  <outline>
    <component base="_VerticalOval" xOffset="-24"/>
    <component base="_Dot" xOffset="48" yOffset="-13"/>
    <contour>
      <point x="720" y="1393" type="move" name="T"/>
    </contour>
  </outline>
</glyph>
<glyph name="TifLtrYat" format="1">
  <advance width="1413"/>
  <unicode hex="2D5C"/>
  <outline>
    <component base="_VerticalBar" xOffset="-36"/>
    <component base="_HorizontalBar" xOffset="-36"/>
    <contour>
      <point x="711" y="1393" type="move" name="T"/>
    </contour>
  </outline>
</glyph>
<glyph name="TifLtrYaz" format="1">
  <advance width="1121"/>
  <unicode hex="2D63"/>
  <outline>
    <contour>
      <point x="576" y="1038" type="curve" smooth="yes"/>
      <point x="414" y="1038"/>
      <point x="293" y="1193"/>
      <point x="293" y="1356" type="curve" smooth="yes"/>
      <point x="293" y="1371"/>
      <point x="281" y="1393"/>
      <point x="236" y="1393" type="curve" smooth="yes"/>
      <point x="160" y="1393"/>
      <point x="123" y="1332"/>
      <point x="123" y="1293" type="curve" smooth="yes"/>
      <point x="123" y="1074"/>
      <point x="300" y="900"/>
      <point x="510" y="900" type="curve" smooth="yes"/>
      <point x="844" y="900"/>
      <point x="1021" y="1269"/>
      <point x="1021" y="1346" type="curve" smooth="yes"/>
      <point x="1021" y="1368"/>
      <point x="1008" y="1393"/>
      <point x="953" y="1393" type="curve" smooth="yes"/>
      <point x="925" y="1393"/>
      <point x="870" y="1370"/>
      <point x="859" y="1328" type="curve" smooth="yes"/>
      <point x="845" y="1276"/>
      <point x="751" y="1038"/>
    </contour>
    <contour>
      <point x="545" y="355" type="curve" smooth="yes"/>
      <point x="707" y="355"/>
      <point x="828" y="200"/>
      <point x="828" y="37" type="curve" smooth="yes"/>
      <point x="828" y="22"/>
      <point x="840" y="0"/>
      <point x="885" y="0" type="curve" smooth="yes"/>
      <point x="961" y="0"/>
      <point x="998" y="61"/>
      <point x="998" y="100" type="curve" smooth="yes"/>
      <point x="998" y="319"/>
      <point x="821" y="493"/>
      <point x="611" y="493" type="curve" smooth="yes"/>
      <point x="277" y="493"/>
      <point x="100" y="124"/>
      <point x="100" y="47" type="curve" smooth="yes"/>
      <point x="100" y="25"/>
      <point x="113" y="0"/>
      <point x="168" y="0" type="curve" smooth="yes"/>
      <point x="196" y="0"/>
      <point x="251" y="23"/>
      <point x="262" y="65" type="curve" smooth="yes"/>
      <point x="276" y="117"/>
      <point x="370" y="355"/>
    </contour>
    <component base="_VerticalBar" xOffset="-179"/>
    <contour>
      <point x="564" y="1393" type="move" name="T"/>
    </contour>
  </outline>
</glyph>
<glyph name="TifPuncTazarast" format="1">
  <advance width="920"/>
  <unicode hex="2D70"/>
  <outline>
    <contour>
      <point x="743" y="1319" type="line" smooth="yes"/>
      <point x="616" y="327"/>
      <point x="408" y="-65"/>
      <point x="-619" y="-411" type="curve"/>
      <point x="583" y="-77"/>
      <point x="759" y="239"/>
      <point x="912" y="1382" type="curve" smooth="yes"/>
      <point x="918" y="1425"/>
      <point x="847" y="1423"/>
      <point x="819" y="1413" type="curve" smooth="yes"/>
      <point x="778" y="1399"/>
      <point x="743" y="1364"/>
      <point x="743" y="1319" type="curve" smooth="yes"/>
    </contour>
  </outline>
</glyph>
<glyph name="TifLig-mt.alt" format="1">
  <advance width="1558"/>
  <outline>
    <contour>
      <point x="978" y="590" type="curve" smooth="yes"/>
      <point x="978" y="428"/>
      <point x="969" y="449"/>
      <point x="969" y="410" type="curve" smooth="yes"/>
      <point x="969" y="385"/>
      <point x="992" y="371"/>
      <point x="1022" y="371" type="curve" smooth="yes"/>
      <point x="1113" y="372"/>
      <point x="1123" y="446"/>
      <point x="1123" y="547" type="curve" smooth="yes"/>
      <point x="1123" y="664"/>
      <point x="1115" y="733"/>
      <point x="1115" y="816" type="curve" smooth="yes"/>
      <point x="1115" y="978"/>
      <point x="1124" y="944"/>
      <point x="1124" y="983" type="curve" smooth="yes"/>
      <point x="1124" y="1008"/>
      <point x="1101" y="1022"/>
      <point x="1071" y="1022" type="curve" smooth="yes"/>
      <point x="980" y="1021"/>
      <point x="970" y="947"/>
      <point x="970" y="846" type="curve" smooth="yes"/>
      <point x="970" y="729"/>
      <point x="978" y="673"/>
    </contour>
    <contour>
      <point x="521" y="752" type="curve" smooth="yes"/>
      <point x="359" y="752"/>
      <point x="393" y="761"/>
      <point x="354" y="761" type="curve" smooth="yes"/>
      <point x="329" y="761"/>
      <point x="315" y="738"/>
      <point x="315" y="708" type="curve" smooth="yes"/>
      <point x="316" y="641"/>
      <point x="356" y="632"/>
      <point x="418" y="632" type="curve" smooth="yes"/>
      <point x="538" y="632"/>
      <point x="1041" y="641"/>
      <point x="1152" y="641" type="curve" smooth="yes"/>
      <point x="1314" y="641"/>
      <point x="1280" y="632"/>
      <point x="1319" y="632" type="curve" smooth="yes"/>
      <point x="1344" y="632"/>
      <point x="1358" y="655"/>
      <point x="1358" y="685" type="curve" smooth="yes"/>
      <point x="1357" y="752"/>
      <point x="1317" y="761"/>
      <point x="1255" y="761" type="curve" smooth="yes"/>
      <point x="1135" y="761"/>
      <point x="632" y="752"/>
    </contour>
    <component base="TifLtrYam"/>
  </outline>
</glyph>
<glyph name="TifLig-zzt.alt2" format="1">
  <advance width="1413"/>
  <outline>
    <contour>
      <point x="407" y="0" type="curve" smooth="yes"/>
      <point x="461" y="0"/>
      <point x="514" y="41"/>
      <point x="518" y="89" type="curve" smooth="yes"/>
      <point x="525" y="167"/>
      <point x="525" y="268"/>
      <point x="525" y="380" type="curve" smooth="yes"/>
      <point x="525" y="660"/>
      <point x="510" y="733"/>
      <point x="510" y="1013" type="curve" smooth="yes"/>
      <point x="510" y="1177"/>
      <point x="511" y="1226"/>
      <point x="511" y="1265" type="curve" smooth="yes"/>
      <point x="511" y="1313"/>
      <point x="521" y="1314"/>
      <point x="521" y="1347" type="curve" smooth="yes"/>
      <point x="521" y="1377"/>
      <point x="494" y="1393"/>
      <point x="458" y="1393" type="curve" smooth="yes"/>
      <point x="404" y="1393"/>
      <point x="351" y="1352"/>
      <point x="347" y="1304" type="curve" smooth="yes"/>
      <point x="340" y="1226"/>
      <point x="340" y="1125"/>
      <point x="340" y="1013" type="curve" smooth="yes"/>
      <point x="340" y="733"/>
      <point x="355" y="660"/>
      <point x="355" y="380" type="curve" smooth="yes"/>
      <point x="355" y="216"/>
      <point x="354" y="167"/>
      <point x="354" y="128" type="curve" smooth="yes"/>
      <point x="354" y="80"/>
      <point x="344" y="79"/>
      <point x="344" y="46" type="curve" smooth="yes"/>
      <point x="344" y="16"/>
      <point x="371" y="0"/>
    </contour>
    <contour>
      <point x="944" y="0" type="curve" smooth="yes"/>
      <point x="998" y="0"/>
      <point x="1051" y="41"/>
      <point x="1055" y="89" type="curve" smooth="yes"/>
      <point x="1062" y="167"/>
      <point x="1062" y="268"/>
      <point x="1062" y="380" type="curve" smooth="yes"/>
      <point x="1062" y="660"/>
      <point x="1047" y="733"/>
      <point x="1047" y="1013" type="curve" smooth="yes"/>
      <point x="1047" y="1177"/>
      <point x="1048" y="1226"/>
      <point x="1048" y="1265" type="curve" smooth="yes"/>
      <point x="1048" y="1313"/>
      <point x="1058" y="1314"/>
      <point x="1058" y="1347" type="curve" smooth="yes"/>
      <point x="1058" y="1377"/>
      <point x="1031" y="1393"/>
      <point x="995" y="1393" type="curve" smooth="yes"/>
      <point x="941" y="1393"/>
      <point x="888" y="1352"/>
      <point x="884" y="1304" type="curve" smooth="yes"/>
      <point x="877" y="1226"/>
      <point x="877" y="1125"/>
      <point x="877" y="1013" type="curve" smooth="yes"/>
      <point x="877" y="733"/>
      <point x="892" y="660"/>
      <point x="892" y="380" type="curve" smooth="yes"/>
      <point x="892" y="216"/>
      <point x="891" y="167"/>
      <point x="891" y="128" type="curve" smooth="yes"/>
      <point x="891" y="80"/>
      <point x="881" y="79"/>
      <point x="881" y="46" type="curve" smooth="yes"/>
      <point x="881" y="16"/>
      <point x="908" y="0"/>
    </contour>
    <contour>
      <point x="1313" y="962" type="curve" smooth="yes"/>
      <point x="1313" y="1016"/>
      <point x="1272" y="1039"/>
      <point x="1224" y="1043" type="curve" smooth="yes"/>
      <point x="1146" y="1050"/>
      <point x="1045" y="1050"/>
      <point x="933" y="1050" type="curve" smooth="yes"/>
      <point x="653" y="1050"/>
      <point x="740" y="1041"/>
      <point x="460" y="1041" type="curve" smooth="yes"/>
      <point x="296" y="1041"/>
      <point x="267" y="1042"/>
      <point x="228" y="1042" type="curve" smooth="yes"/>
      <point x="180" y="1042"/>
      <point x="179" y="1052"/>
      <point x="146" y="1052" type="curve" smooth="yes"/>
      <point x="116" y="1052"/>
      <point x="100" y="1025"/>
      <point x="100" y="989" type="curve" smooth="yes"/>
      <point x="100" y="935"/>
      <point x="141" y="912"/>
      <point x="189" y="908" type="curve" smooth="yes"/>
      <point x="267" y="901"/>
      <point x="348" y="901"/>
      <point x="460" y="901" type="curve" smooth="yes"/>
      <point x="740" y="901"/>
      <point x="653" y="910"/>
      <point x="933" y="910" type="curve" smooth="yes"/>
      <point x="1097" y="910"/>
      <point x="1146" y="909"/>
      <point x="1185" y="909" type="curve" smooth="yes"/>
      <point x="1233" y="909"/>
      <point x="1234" y="899"/>
      <point x="1267" y="899" type="curve" smooth="yes"/>
      <point x="1297" y="899"/>
      <point x="1313" y="926"/>
    </contour>
    <contour>
      <point x="1313" y="406" type="curve" smooth="yes"/>
      <point x="1313" y="460"/>
      <point x="1272" y="483"/>
      <point x="1224" y="487" type="curve" smooth="yes"/>
      <point x="1146" y="494"/>
      <point x="1045" y="494"/>
      <point x="933" y="494" type="curve" smooth="yes"/>
      <point x="653" y="494"/>
      <point x="740" y="485"/>
      <point x="460" y="485" type="curve" smooth="yes"/>
      <point x="296" y="485"/>
      <point x="267" y="486"/>
      <point x="228" y="486" type="curve" smooth="yes"/>
      <point x="180" y="486"/>
      <point x="179" y="496"/>
      <point x="146" y="496" type="curve" smooth="yes"/>
      <point x="116" y="496"/>
      <point x="100" y="469"/>
      <point x="100" y="433" type="curve" smooth="yes"/>
      <point x="100" y="379"/>
      <point x="141" y="356"/>
      <point x="189" y="352" type="curve" smooth="yes"/>
      <point x="267" y="345"/>
      <point x="348" y="345"/>
      <point x="460" y="345" type="curve" smooth="yes"/>
      <point x="740" y="345"/>
      <point x="653" y="354"/>
      <point x="933" y="354" type="curve" smooth="yes"/>
      <point x="1097" y="354"/>
      <point x="1146" y="353"/>
      <point x="1185" y="353" type="curve" smooth="yes"/>
      <point x="1233" y="353"/>
      <point x="1234" y="343"/>
      <point x="1267" y="343" type="curve" smooth="yes"/>
      <point x="1297" y="343"/>
      <point x="1313" y="370"/>
    </contour>
    <component base="_Plus" xScale="0.6" yScale="0.6" xOffset="464" yOffset="468"/>
  </outline>
</glyph>
<glyph name="TifLtrTuarYagn.alt" format="1">
  <advance width="1193"/>
  <outline>
    <component base="_VerticalBar" xOffset="-140"/>
    <component base="_HorizontalBarMed" xOffset="100" yOffset="970"/>
    <component base="_HorizontalBarMed" xOffset="100" yOffset="191"/>
    <contour>
      <point x="601" y="1393" type="move" name="T"/>
    </contour>
  </outline>
</glyph>
<glyph name="TifLtrTuarYaw.alt" format="1">
  <advance width="736"/>
  <outline>
    <component base="_DotWide" xOffset="-345" yOffset="205"/>
    <component base="_DotWide" xOffset="-345" yOffset="-205"/>
    <contour>
      <point x="377" y="984" type="move" name="T"/>
    </contour>
  </outline>
</glyph>
<glyph name="TifLtrYal.slant" format="1">
  <advance width="1291"/>
  <outline>
    <component base="TifLtrYan.slant"/>
    <component base="TifLtrYan.slant" xOffset="400"/>
    <contour>
      <point x="487" y="1393" type="move" name="T"/>
    </contour>
  </outline>
</glyph>
<glyph name="TifShadda" format="1">
  <advance width="1438"/>
  <outline>
    <contour>
      <point x="502" y="1699" type="curve" smooth="yes"/>
      <point x="472" y="1699"/>
      <point x="472" y="1618"/>
      <point x="502" y="1618" type="curve" smooth="yes"/>
      <point x="590" y="1618"/>
      <point x="728" y="1732"/>
      <point x="808" y="1732" type="curve" smooth="yes"/>
      <point x="837" y="1732"/>
      <point x="843" y="1813"/>
      <point x="808" y="1813" type="curve" smooth="yes"/>
      <point x="728" y="1813"/>
      <point x="582" y="1699"/>
    </contour>
    <contour>
      <point x="675" y="1393" type="move" name="_T"/>
    </contour>
  </outline>
</glyph>
<glyph name="TifSukun" format="1">
  <advance width="1438"/>
  <outline>
    <contour>
      <point x="715" y="1696" type="curve" smooth="yes"/>
      <point x="660" y="1696"/>
      <point x="612" y="1716"/>
      <point x="612" y="1755" type="curve" smooth="yes"/>
      <point x="612" y="1795"/>
      <point x="668" y="1823"/>
      <point x="723" y="1823" type="curve" smooth="yes"/>
      <point x="777" y="1823"/>
      <point x="826" y="1802"/>
      <point x="826" y="1763" type="curve" smooth="yes"/>
      <point x="826" y="1724"/>
      <point x="769" y="1696"/>
    </contour>
    <contour>
      <point x="723" y="1617" type="curve" smooth="yes"/>
      <point x="813" y="1617"/>
      <point x="884" y="1678"/>
      <point x="884" y="1757" type="curve" smooth="yes"/>
      <point x="884" y="1836"/>
      <point x="805" y="1905"/>
      <point x="715" y="1905" type="curve" smooth="yes"/>
      <point x="625" y="1905"/>
      <point x="554" y="1840"/>
      <point x="554" y="1761" type="curve" smooth="yes"/>
      <point x="554" y="1682"/>
      <point x="633" y="1617"/>
    </contour>
    <contour>
      <point x="722" y="1393" type="move" name="_T"/>
    </contour>
  </outline>
</glyph>
<glyph name="_HorizontalBarMedShort" format="1">
  <advance width="1470"/>
  <outline>
    <contour>
      <point x="883" y="63" type="curve" smooth="yes"/>
      <point x="883" y="117"/>
      <point x="842" y="140"/>
      <point x="794" y="144" type="curve" smooth="yes"/>
      <point x="716" y="151"/>
      <point x="615" y="151"/>
      <point x="503" y="151" type="curve" smooth="yes"/>
      <point x="360" y="151" type="line" smooth="yes"/>
      <point x="196" y="151"/>
      <point x="167" y="152"/>
      <point x="128" y="152" type="curve" smooth="yes"/>
      <point x="80" y="152"/>
      <point x="79" y="162"/>
      <point x="46" y="162" type="curve" smooth="yes"/>
      <point x="16" y="162"/>
      <point x="0" y="135"/>
      <point x="0" y="99" type="curve" smooth="yes"/>
      <point x="0" y="45"/>
      <point x="41" y="22"/>
      <point x="89" y="18" type="curve" smooth="yes"/>
      <point x="167" y="11"/>
      <point x="248" y="11"/>
      <point x="360" y="11" type="curve" smooth="yes"/>
      <point x="503" y="11" type="line" smooth="yes"/>
      <point x="667" y="11"/>
      <point x="716" y="10"/>
      <point x="755" y="10" type="curve" smooth="yes"/>
      <point x="803" y="10"/>
      <point x="804" y="0"/>
      <point x="837" y="0" type="curve" smooth="yes"/>
      <point x="867" y="0"/>
      <point x="883" y="27"/>
    </contour>
  </outline>
</glyph>
<glyph name="_HorizontalBarMedShort1.5" format="1">
  <advance width="1470"/>
  <outline>
    <contour>
      <point x="760" y="63" type="curve" smooth="yes"/>
      <point x="760" y="117"/>
      <point x="719" y="140"/>
      <point x="671" y="144" type="curve" smooth="yes"/>
      <point x="593" y="151"/>
      <point x="492" y="151"/>
      <point x="380" y="151" type="curve" smooth="yes"/>
      <point x="360" y="151" type="line" smooth="yes"/>
      <point x="196" y="151"/>
      <point x="167" y="152"/>
      <point x="128" y="152" type="curve" smooth="yes"/>
      <point x="80" y="152"/>
      <point x="79" y="162"/>
      <point x="46" y="162" type="curve" smooth="yes"/>
      <point x="16" y="162"/>
      <point x="0" y="135"/>
      <point x="0" y="99" type="curve" smooth="yes"/>
      <point x="0" y="45"/>
      <point x="41" y="22"/>
      <point x="89" y="18" type="curve" smooth="yes"/>
      <point x="167" y="11"/>
      <point x="248" y="11"/>
      <point x="360" y="11" type="curve" smooth="yes"/>
      <point x="380" y="11" type="line" smooth="yes"/>
      <point x="544" y="11"/>
      <point x="593" y="10"/>
      <point x="632" y="10" type="curve" smooth="yes"/>
      <point x="680" y="10"/>
      <point x="681" y="0"/>
      <point x="714" y="0" type="curve" smooth="yes"/>
      <point x="744" y="0"/>
      <point x="760" y="27"/>
    </contour>
  </outline>
</glyph>
<glyph name="_HorizontalBarMedShort2" format="1">
  <advance width="1470"/>
  <outline>
    <contour>
      <point x="673" y="63" type="curve" smooth="yes"/>
      <point x="673" y="117"/>
      <point x="632" y="140"/>
      <point x="584" y="144" type="curve" smooth="yes"/>
      <point x="506" y="151"/>
      <point x="445" y="151"/>
      <point x="333" y="151" type="curve" smooth="yes"/>
      <point x="320" y="151" type="line" smooth="yes"/>
      <point x="156" y="151"/>
      <point x="167" y="152"/>
      <point x="128" y="152" type="curve" smooth="yes"/>
      <point x="80" y="152"/>
      <point x="79" y="162"/>
      <point x="46" y="162" type="curve" smooth="yes"/>
      <point x="16" y="162"/>
      <point x="0" y="135"/>
      <point x="0" y="99" type="curve" smooth="yes"/>
      <point x="0" y="45"/>
      <point x="41" y="22"/>
      <point x="89" y="18" type="curve" smooth="yes"/>
      <point x="167" y="11"/>
      <point x="208" y="11"/>
      <point x="320" y="11" type="curve" smooth="yes"/>
      <point x="333" y="11" type="line" smooth="yes"/>
      <point x="497" y="11"/>
      <point x="506" y="10"/>
      <point x="545" y="10" type="curve" smooth="yes"/>
      <point x="593" y="10"/>
      <point x="594" y="0"/>
      <point x="627" y="0" type="curve" smooth="yes"/>
      <point x="657" y="0"/>
      <point x="673" y="27"/>
    </contour>
  </outline>
</glyph>
<glyph name="_PlusMedium" format="1">
  <advance width="1470"/>
  <outline>
    <contour>
      <point x="206" y="381" type="curve" smooth="yes"/>
      <point x="44" y="381"/>
      <point x="78" y="390"/>
      <point x="39" y="390" type="curve" smooth="yes"/>
      <point x="14" y="390"/>
      <point x="0" y="367"/>
      <point x="0" y="337" type="curve" smooth="yes"/>
      <point x="1" y="270"/>
      <point x="41" y="261"/>
      <point x="103" y="261" type="curve" smooth="yes"/>
      <point x="223" y="261"/>
      <point x="334" y="270"/>
      <point x="445" y="270" type="curve" smooth="yes"/>
      <point x="607" y="270"/>
      <point x="573" y="261"/>
      <point x="612" y="261" type="curve" smooth="yes"/>
      <point x="637" y="261"/>
      <point x="651" y="284"/>
      <point x="651" y="314" type="curve" smooth="yes"/>
      <point x="650" y="381"/>
      <point x="610" y="390"/>
      <point x="548" y="390" type="curve" smooth="yes"/>
      <point x="428" y="390"/>
      <point x="317" y="381"/>
    </contour>
    <contour>
      <point x="257" y="219" type="curve" smooth="yes"/>
      <point x="257" y="57"/>
      <point x="248" y="78"/>
      <point x="248" y="39" type="curve" smooth="yes"/>
      <point x="248" y="14"/>
      <point x="271" y="0"/>
      <point x="301" y="0" type="curve" smooth="yes"/>
      <point x="392" y="1"/>
      <point x="402" y="75"/>
      <point x="402" y="176" type="curve" smooth="yes"/>
      <point x="402" y="293"/>
      <point x="394" y="362"/>
      <point x="394" y="445" type="curve" smooth="yes"/>
      <point x="394" y="607"/>
      <point x="403" y="573"/>
      <point x="403" y="612" type="curve" smooth="yes"/>
      <point x="403" y="637"/>
      <point x="380" y="651"/>
      <point x="350" y="651" type="curve" smooth="yes"/>
      <point x="259" y="650"/>
      <point x="249" y="576"/>
      <point x="249" y="475" type="curve" smooth="yes"/>
      <point x="249" y="358"/>
      <point x="257" y="302"/>
    </contour>
  </outline>
</glyph>
<glyph name="_VerticalBarMedLong" format="1">
  <advance width="1470"/>
  <outline>
    <contour>
      <point x="63" y="0" type="curve" smooth="yes"/>
      <point x="117" y="0"/>
      <point x="170" y="41"/>
      <point x="174" y="89" type="curve" smooth="yes"/>
      <point x="177" y="99"/>
      <point x="179" y="157"/>
      <point x="179" y="236" type="curve" smooth="yes"/>
      <point x="179" y="445"/>
      <point x="172" y="683"/>
      <point x="171" y="683" type="curve" smooth="yes"/>
      <point x="171" y="727"/>
      <point x="179" y="732"/>
      <point x="179" y="764" type="curve" smooth="yes"/>
      <point x="179" y="794"/>
      <point x="152" y="810"/>
      <point x="116" y="810" type="curve" smooth="yes"/>
      <point x="62" y="810"/>
      <point x="9" y="769"/>
      <point x="5" y="721" type="curve" smooth="yes"/>
      <point x="2" y="711"/>
      <point x="0" y="653"/>
      <point x="0" y="574" type="curve" smooth="yes"/>
      <point x="0" y="365"/>
      <point x="9" y="127"/>
      <point x="10" y="127" type="curve" smooth="yes"/>
      <point x="10" y="83"/>
      <point x="0" y="78"/>
      <point x="0" y="46" type="curve" smooth="yes"/>
      <point x="0" y="16"/>
      <point x="27" y="0"/>
    </contour>
  </outline>
</glyph>
<glyph name="_VerticalBarMedium" format="1">
  <advance width="1470"/>
  <outline>
    <contour>
      <point x="9" y="231" type="curve" smooth="yes"/>
      <point x="9" y="40"/>
      <point x="0" y="90"/>
      <point x="0" y="44" type="curve" smooth="yes"/>
      <point x="0" y="15"/>
      <point x="27" y="-2"/>
      <point x="63" y="-2" type="curve" smooth="yes"/>
      <point x="170" y="0"/>
      <point x="180" y="77"/>
      <point x="180" y="196" type="curve" smooth="yes"/>
      <point x="180" y="254"/>
      <point x="174" y="363"/>
      <point x="174" y="421" type="curve" smooth="yes"/>
      <point x="174" y="612"/>
      <point x="183" y="572"/>
      <point x="183" y="618" type="curve" smooth="yes"/>
      <point x="183" y="647"/>
      <point x="156" y="664"/>
      <point x="120" y="664" type="curve" smooth="yes"/>
      <point x="13" y="662"/>
      <point x="3" y="575"/>
      <point x="3" y="456" type="curve" smooth="yes"/>
      <point x="3" y="398"/>
      <point x="9" y="289"/>
    </contour>
  </outline>
</glyph>
<glyph name="_k" format="1">
  <advance width="978"/>
  <outline>
    <contour>
      <point x="361" y="1622" type="curve" smooth="yes"/>
      <point x="361" y="1689"/>
      <point x="324" y="1726"/>
      <point x="257" y="1726" type="curve" smooth="yes"/>
      <point x="188" y="1726"/>
      <point x="115" y="1653"/>
      <point x="115" y="1584" type="curve" smooth="yes"/>
      <point x="115" y="1517"/>
      <point x="152" y="1480"/>
      <point x="219" y="1480" type="curve" smooth="yes"/>
      <point x="288" y="1480"/>
      <point x="361" y="1553"/>
    </contour>
    <contour>
      <point x="873" y="1622" type="curve" smooth="yes"/>
      <point x="873" y="1689"/>
      <point x="836" y="1726"/>
      <point x="769" y="1726" type="curve" smooth="yes"/>
      <point x="700" y="1726"/>
      <point x="627" y="1653"/>
      <point x="627" y="1584" type="curve" smooth="yes"/>
      <point x="627" y="1517"/>
      <point x="664" y="1480"/>
      <point x="731" y="1480" type="curve" smooth="yes"/>
      <point x="800" y="1480"/>
      <point x="873" y="1553"/>
    </contour>
    <contour>
      <point x="627" y="1899" type="curve" smooth="yes"/>
      <point x="627" y="1966"/>
      <point x="590" y="2003"/>
      <point x="523" y="2003" type="curve" smooth="yes"/>
      <point x="454" y="2003"/>
      <point x="381" y="1930"/>
      <point x="381" y="1861" type="curve" smooth="yes"/>
      <point x="381" y="1794"/>
      <point x="418" y="1757"/>
      <point x="485" y="1757" type="curve" smooth="yes"/>
      <point x="554" y="1757"/>
      <point x="627" y="1830"/>
    </contour>
  </outline>
</glyph>
